<svg width="33" height="32" viewBox="0 0 33 32" fill="none" xmlns="http://www.w3.org/2000/svg">
<circle cx="16.1074" cy="16" r="16" fill="#6B81BB"/>
<g clip-path="url(#clip0_2_5878)">
<path d="M23.177 8.93003C19.27 5.02298 12.9457 5.02236 9.03808 8.93003C5.13099 12.8371 5.13041 19.1614 9.03808 23.069C12.945 26.976 19.2694 26.9766 23.177 23.069C27.0841 19.162 27.0846 12.8377 23.177 8.93003ZM22.7591 21.6438C22.292 21.2261 21.7924 20.8565 21.2657 20.5379C21.6138 19.3354 21.82 18.0121 21.8688 16.6366H24.8081C24.6752 18.4907 23.9628 20.2299 22.7591 21.6438ZM7.40691 16.6366H10.3463C10.395 18.0121 10.6013 19.3354 10.9494 20.5379C10.4227 20.8565 9.92302 21.2261 9.4559 21.6438C8.25219 20.2299 7.53985 18.4907 7.40691 16.6366ZM9.45594 10.3552C9.92306 10.7729 10.4227 11.1426 10.9494 11.4611C10.6013 12.6636 10.3951 13.9869 10.3463 15.3624H7.40691C7.53985 13.5084 8.25219 11.7691 9.45594 10.3552ZM15.4704 11.5928C14.4314 11.5185 13.4295 11.2626 12.5007 10.8404C13.0409 9.44937 14.0367 7.78101 15.4704 7.36756V11.5928ZM15.4704 12.8694V15.3624H11.621C11.6652 14.1989 11.83 13.0815 12.1042 12.0592C13.1597 12.5206 14.2949 12.7962 15.4704 12.8694ZM15.4704 16.6366V19.1296C14.2949 19.2029 13.1597 19.4785 12.1042 19.9399C11.83 18.9175 11.6652 17.8002 11.621 16.6366H15.4704ZM15.4704 20.4062V24.6315C14.0368 24.218 13.0409 22.5498 12.5007 21.1587C13.4295 20.7365 14.4314 20.4806 15.4704 20.4062ZM16.7446 20.4062C17.7837 20.4806 18.7856 20.7365 19.7144 21.1587C19.1742 22.5497 18.1784 24.218 16.7446 24.6315V20.4062ZM16.7446 19.1296V16.6366H20.594C20.5499 17.8002 20.3851 18.9175 20.1109 19.9399C19.0554 19.4785 17.9202 19.2029 16.7446 19.1296ZM16.7446 15.3624V12.8694C17.9202 12.7962 19.0554 12.5206 20.1109 12.0592C20.3851 13.0815 20.5499 14.1989 20.594 15.3624H16.7446ZM16.7446 11.5928V7.36759C18.1784 7.78105 19.1742 9.44941 19.7144 10.8404C18.7856 11.2626 17.7837 11.5185 16.7446 11.5928ZM19.6064 8.00368C20.4219 8.36081 21.1828 8.84506 21.8648 9.4459C21.5402 9.73215 21.1976 9.9917 20.8399 10.2238C20.5222 9.43727 20.1164 8.6729 19.6064 8.00368ZM11.3752 10.2238C11.0174 9.9917 10.6749 9.73215 10.3502 9.4459C11.0323 8.84506 11.7931 8.36081 12.6087 8.00368C12.0986 8.67297 11.6928 9.43735 11.3752 10.2238ZM11.3752 21.7752C11.6928 22.5618 12.0987 23.3262 12.6087 23.9954C11.7932 23.6383 11.0323 23.154 10.3502 22.5532C10.6749 22.2669 11.0175 22.0074 11.3752 21.7752ZM20.8399 21.7752C21.1976 22.0074 21.5402 22.2669 21.8648 22.5531C21.1828 23.154 20.4219 23.6382 19.6064 23.9953C20.1164 23.3262 20.5222 22.5618 20.8399 21.7752ZM21.8688 15.3624C21.8201 13.9869 21.6138 12.6636 21.2657 11.4612C21.7924 11.1426 22.292 10.7729 22.7592 10.3552C23.9629 11.7691 24.6752 13.5084 24.8082 15.3624H21.8688Z" fill="white"/>
</g>
<defs>
<clipPath id="clip0_2_5878">
<rect width="20" height="20" fill="white" transform="translate(6.10742 6)"/>
</clipPath>
</defs>
</svg>
