<svg width="33" height="32" viewBox="0 0 33 32" fill="none" xmlns="http://www.w3.org/2000/svg">
<path d="M16.1074 32C24.944 32 32.1074 24.8366 32.1074 16C32.1074 7.16344 24.944 0 16.1074 0C7.27087 0 0.107422 7.16344 0.107422 16C0.107422 24.8366 7.27087 32 16.1074 32Z" fill="#3A559F"/>
<path d="M21.1761 14.1055L20.8543 16.8927C20.841 17.0199 20.7814 17.1378 20.6868 17.2239C20.5923 17.31 20.4695 17.3585 20.3416 17.36H17.4325L17.4179 25.6236C17.4189 25.7216 17.3813 25.8159 17.3133 25.8864C17.2452 25.9568 17.1522 25.9976 17.0543 26H14.107C14.058 26 14.0095 25.9902 13.9644 25.971C13.9193 25.9518 13.8786 25.9237 13.8446 25.8884C13.8106 25.8531 13.7842 25.8113 13.7668 25.7654C13.7494 25.7196 13.7414 25.6708 13.7434 25.6218V17.36H11.5616C11.493 17.3593 11.4253 17.3451 11.3623 17.3182C11.2992 17.2913 11.2421 17.2523 11.1942 17.2033C11.1462 17.1544 11.1084 17.0964 11.0828 17.0328C11.0573 16.9693 11.0445 16.9013 11.0452 16.8327L11.0343 14.0455C11.0333 13.9767 11.0459 13.9084 11.0714 13.8445C11.0968 13.7806 11.1346 13.7223 11.1825 13.673C11.2305 13.6237 11.2876 13.5844 11.3508 13.5572C11.414 13.53 11.4819 13.5155 11.5507 13.5145H13.7434V10.8236C13.7434 7.7 15.5979 6 18.3179 6H20.547C20.616 6.00071 20.6841 6.01502 20.7474 6.04211C20.8108 6.0692 20.8682 6.10854 20.9164 6.15786C20.9645 6.20719 21.0024 6.26553 21.028 6.32955C21.0535 6.39356 21.0662 6.46199 21.0652 6.53091V8.87636C21.0662 8.94528 21.0535 9.01371 21.028 9.07773C21.0024 9.14174 20.9645 9.20009 20.9164 9.24941C20.8682 9.29874 20.8108 9.33807 20.7474 9.36516C20.6841 9.39225 20.616 9.40656 20.547 9.40727H19.1798C17.7016 9.40727 17.4143 10.1345 17.4143 11.1855V13.5145H20.6634C20.7373 13.5155 20.8102 13.532 20.8772 13.5631C20.9442 13.5942 21.0039 13.6392 21.0523 13.695C21.1008 13.7508 21.1368 13.8162 21.1582 13.887C21.1795 13.9577 21.1856 14.0322 21.1761 14.1055Z" fill="white"/>
</svg>
