<svg width="33" height="32" viewBox="0 0 33 32" fill="none" xmlns="http://www.w3.org/2000/svg">
<path d="M32.1074 16C32.1074 7.16344 24.944 0 16.1074 0C7.27087 0 0.107422 7.16344 0.107422 16C0.107422 24.8366 7.27087 32 16.1074 32C24.944 32 32.1074 24.8366 32.1074 16Z" fill="url(#paint0_linear_2_5870)"/>
<path opacity="0.1" d="M28.1495 5.47368C25.8168 9.75579 22.5179 14.1726 18.3958 18.2947C14.2737 22.4168 9.85684 25.7095 5.58105 28.0421C5.31298 27.8091 5.05263 27.5663 4.8 27.3137C3.27296 25.8376 2.05507 24.0723 1.21734 22.1207C0.379606 20.1691 -0.0611973 18.0702 -0.0793703 15.9465C-0.0975432 13.8227 0.307278 11.7166 1.11149 9.75097C1.9157 7.7853 3.1032 5.99942 4.60476 4.49744C6.10631 2.99547 7.89187 1.80746 9.85731 1.00271C11.8227 0.197947 13.9287 -0.207462 16.0525 -0.189881C18.1762 -0.172301 20.2752 0.267916 22.2271 1.1051C24.1789 1.94229 25.9446 3.15969 27.421 4.68631C27.6737 4.93894 27.9165 5.2014 28.1495 5.47368V5.47368Z" fill="white"/>
<path d="M19.8964 7.5791H12.3175C11.0891 7.5791 9.91106 8.06707 9.04247 8.93566C8.17388 9.80425 7.68591 10.9823 7.68591 12.2107V19.7896C7.68591 21.018 8.17388 22.1961 9.04247 23.0646C9.91106 23.9332 11.0891 24.4212 12.3175 24.4212H19.8964C21.1248 24.4212 22.3029 23.9332 23.1715 23.0646C24.0401 22.1961 24.528 21.018 24.528 19.7896V12.2107C24.528 10.9823 24.0401 9.80425 23.1715 8.93566C22.3029 8.06707 21.1248 7.5791 19.8964 7.5791ZM23.0543 19.1244C23.0543 20.1383 22.6515 21.1108 21.9346 21.8277C21.2176 22.5447 20.2451 22.9475 19.2312 22.9475H12.9828C11.9688 22.9475 10.9964 22.5447 10.2794 21.8277C9.56239 21.1108 9.1596 20.1383 9.1596 19.1244V12.8759C9.1596 11.862 9.56239 10.8895 10.2794 10.1726C10.9964 9.45558 11.9688 9.05279 12.9828 9.05279H19.2312C20.2451 9.05279 21.2176 9.45558 21.9346 10.1726C22.6515 10.8895 23.0543 11.862 23.0543 12.8759V19.1244Z" fill="white"/>
<path d="M19.1782 12.96L19.1382 12.92L19.1045 12.8863C18.3085 12.0931 17.2304 11.6479 16.1066 11.6484C15.5391 11.6523 14.978 11.7679 14.4552 11.9887C13.9324 12.2095 13.4582 12.5312 13.0598 12.9353C12.6613 13.3394 12.3464 13.8181 12.133 14.3439C11.9196 14.8698 11.8119 15.4325 11.8161 16C11.8152 17.1517 12.2692 18.2571 13.0793 19.0758C13.476 19.4774 13.9488 19.7959 14.4701 20.0128C14.9913 20.2297 15.5505 20.3406 16.115 20.339C16.9619 20.3212 17.7852 20.0574 18.4847 19.5798C19.1841 19.1021 19.7295 18.4312 20.0542 17.6489C20.379 16.8667 20.4691 16.0068 20.3135 15.1742C20.158 14.3416 19.7635 13.5723 19.1782 12.96V12.96ZM16.1066 18.8548C15.5404 18.8627 14.9846 18.702 14.5099 18.3932C14.0352 18.0844 13.6631 17.6414 13.4408 17.1205C13.2186 16.5996 13.1564 16.0244 13.2619 15.468C13.3675 14.9116 13.6362 14.3992 14.0338 13.996C14.4314 13.5927 14.94 13.3168 15.4948 13.2034C16.0496 13.09 16.6257 13.1441 17.1496 13.359C17.6736 13.5738 18.1218 13.9396 18.4373 14.4099C18.7528 14.8802 18.9213 15.4337 18.9214 16C18.9241 16.3723 18.8535 16.7415 18.7135 17.0865C18.5736 17.4315 18.367 17.7455 18.1056 18.0107C17.8442 18.2758 17.5331 18.4868 17.1901 18.6316C16.8471 18.7765 16.4789 18.8523 16.1066 18.8548V18.8548Z" fill="white"/>
<path d="M21.6715 11.4486C21.6726 11.5837 21.6471 11.7176 21.5963 11.8429C21.5456 11.9681 21.4707 12.082 21.3758 12.1782C21.281 12.2745 21.1681 12.351 21.0436 12.4035C20.9192 12.4561 20.7856 12.4835 20.6505 12.4844C20.5165 12.4843 20.3839 12.4577 20.2603 12.406C20.1367 12.3543 20.0246 12.2786 19.9305 12.1833C19.7878 12.0386 19.6908 11.8552 19.6515 11.6559C19.6121 11.4566 19.6321 11.2501 19.709 11.062C19.7858 10.8739 19.9162 10.7126 20.084 10.5979C20.2517 10.4832 20.4494 10.4203 20.6526 10.417C20.8903 10.4169 21.1206 10.5004 21.3031 10.6528L21.3241 10.6738C21.3581 10.7015 21.3891 10.7325 21.4168 10.7665L21.4399 10.7917C21.5906 10.9774 21.6725 11.2095 21.6715 11.4486V11.4486Z" fill="white"/>
<defs>
<linearGradient id="paint0_linear_2_5870" x1="4.79374" y1="4.68632" x2="27.4211" y2="27.3137" gradientUnits="userSpaceOnUse">
<stop stop-color="#FAE100"/>
<stop offset="0.15" stop-color="#FCB720"/>
<stop offset="0.3" stop-color="#FF7950"/>
<stop offset="0.5" stop-color="#FF1C74"/>
<stop offset="1" stop-color="#6C1CD1"/>
</linearGradient>
</defs>
</svg>
