<svg width="33" height="32" viewBox="0 0 33 32" fill="none" xmlns="http://www.w3.org/2000/svg">
<path d="M16.1074 31.9995C24.944 31.9995 32.1074 24.8361 32.1074 15.9995C32.1074 7.16296 24.944 -0.000488281 16.1074 -0.000488281C7.27087 -0.000488281 0.107422 7.16296 0.107422 15.9995C0.107422 24.8361 7.27087 31.9995 16.1074 31.9995Z" fill="#007AB9"/>
<path d="M25.6671 17.2868V23.8832H21.8426V17.7289C21.8426 16.1836 21.2905 15.1283 19.9057 15.1283C18.849 15.1283 18.2213 15.8387 17.944 16.5267C17.8434 16.7725 17.8174 17.1139 17.8174 17.4588V23.8829H13.9927C13.9927 23.8829 14.044 13.4595 13.9927 12.3805H17.8177V14.0105C17.81 14.0234 17.7991 14.0359 17.7923 14.0482H17.8177V14.0105C18.3259 13.2285 19.2324 12.1104 21.2645 12.1104C23.7807 12.1104 25.6671 13.7544 25.6671 17.2868ZM9.99167 6.83594C8.68338 6.83594 7.82745 7.69472 7.82745 8.82303C7.82745 9.92738 8.65857 10.811 9.94147 10.811H9.96628C11.3002 10.811 12.1296 9.92738 12.1296 8.82303C12.1043 7.69472 11.3002 6.83594 9.99167 6.83594ZM8.05477 23.8832H11.8781V12.3805H8.05477V23.8832Z" fill="white"/>
</svg>
