<svg width="33" height="32" viewBox="0 0 33 32" fill="none" xmlns="http://www.w3.org/2000/svg">
<path d="M16.1073 31.9997C24.9438 31.9997 32.1071 24.8363 32.1071 15.9999C32.1071 7.16338 24.9438 0 16.1073 0C7.2708 0 0.107422 7.16338 0.107422 15.9999C0.107422 24.8363 7.2708 31.9997 16.1073 31.9997Z" fill="#55ACEE"/>
<path d="M25.9075 11.4985C25.2219 11.8025 24.4843 12.0082 23.7108 12.1C24.5006 11.6268 25.1066 10.8782 25.3927 9.98459C24.6537 10.423 23.8349 10.741 22.9641 10.9124C22.2665 10.1694 21.2725 9.70508 20.1719 9.70508C18.0602 9.70508 16.3475 11.4178 16.3475 13.5295C16.3475 13.8293 16.3814 14.121 16.447 14.4011C13.2686 14.2417 10.4504 12.7192 8.56403 10.4047C8.2349 10.9694 8.04609 11.6268 8.04609 12.3276C8.04609 13.6541 8.72176 14.8252 9.74738 15.5109C9.12077 15.4912 8.53066 15.3192 8.01528 15.032C8.015 15.0483 8.015 15.0645 8.015 15.0805C8.015 16.9335 9.33382 18.4791 11.083 18.8302C10.7625 18.918 10.4239 18.9645 10.0757 18.9645C9.82867 18.9645 9.58937 18.9408 9.35607 18.8963C9.84264 20.4154 11.2547 21.5212 12.9286 21.5522C11.6195 22.5781 9.9707 23.1894 8.17843 23.1894C7.8704 23.1894 7.56522 23.1714 7.2666 23.1357C8.9582 24.2213 10.9689 24.8541 13.1286 24.8541C20.1631 24.8541 24.01 19.0267 24.01 13.9724C24.01 13.8067 24.0063 13.6416 23.9989 13.4779C24.7467 12.9388 25.395 12.2654 25.9075 11.4985Z" fill="white"/>
</svg>
