<svg width="25" height="24" viewBox="0 0 25 24" fill="none" xmlns="http://www.w3.org/2000/svg">
<path d="M21.3327 0H3.8782C2.07072 0 0.605469 1.46525 0.605469 3.27273V20.7273C0.605469 22.5347 2.07072 24 3.8782 24H21.3327C23.1402 24 24.6055 22.5347 24.6055 20.7273V3.27273C24.6055 1.46525 23.1402 0 21.3327 0Z" fill="#FF5757"/>
<path d="M9.25106 6.54545C9.25106 6.95001 9.1311 7.34547 8.90634 7.68185C8.68158 8.01822 8.36213 8.28039 7.98837 8.43521C7.61461 8.59002 7.20334 8.63053 6.80656 8.55161C6.40978 8.47268 6.04532 8.27787 5.75926 7.99181C5.47319 7.70575 5.27838 7.34128 5.19946 6.9445C5.12054 6.54772 5.16104 6.13645 5.31586 5.76269C5.47067 5.38894 5.73284 5.06948 6.06922 4.84472C6.40559 4.61996 6.80106 4.5 7.20561 4.5C7.7481 4.5 8.26836 4.7155 8.65196 5.0991C9.03556 5.4827 9.25106 6.00297 9.25106 6.54545Z" fill="white"/>
<path d="M8.78823 9.95258V18.9894C8.78859 19.0561 8.77577 19.1221 8.7505 19.1838C8.72524 19.2455 8.68803 19.3016 8.64102 19.3489C8.594 19.3962 8.53811 19.4337 8.47655 19.4593C8.41499 19.4849 8.34899 19.498 8.28232 19.498H6.12641C6.05975 19.4982 5.9937 19.4852 5.93208 19.4598C5.87045 19.4343 5.81446 19.397 5.76732 19.3498C5.72018 19.3027 5.68282 19.2467 5.65739 19.1851C5.63196 19.1235 5.61896 19.0574 5.61914 18.9908V9.95258C5.61914 9.81805 5.67259 9.68902 5.76772 9.59389C5.86285 9.49876 5.99188 9.44531 6.12641 9.44531H8.28232C8.41662 9.44567 8.5453 9.49928 8.64013 9.59437C8.73497 9.68946 8.78823 9.81828 8.78823 9.95258Z" fill="white"/>
<path d="M20.0562 14.6577V19.0323C20.0564 19.0936 20.0444 19.1543 20.0211 19.2109C19.9977 19.2676 19.9633 19.3191 19.92 19.3624C19.8767 19.4058 19.8252 19.4401 19.7685 19.4635C19.7119 19.4869 19.6511 19.4988 19.5898 19.4986H17.2717C17.2104 19.4988 17.1496 19.4869 17.093 19.4635C17.0363 19.4401 16.9848 19.4058 16.9415 19.3624C16.8981 19.3191 16.8638 19.2676 16.8404 19.2109C16.8171 19.1543 16.8051 19.0936 16.8053 19.0323V14.7927C16.8053 14.16 16.9907 12.0218 15.1512 12.0218C13.7262 12.0218 13.4358 13.485 13.3785 14.1423V19.0323C13.3785 19.1548 13.3303 19.2724 13.2443 19.3596C13.1583 19.4469 13.0414 19.4968 12.9189 19.4986H10.6798C10.6187 19.4986 10.5581 19.4866 10.5016 19.4631C10.4451 19.4396 10.3938 19.4053 10.3506 19.3619C10.3074 19.3186 10.2731 19.2672 10.2498 19.2106C10.2266 19.1541 10.2147 19.0934 10.2148 19.0323V9.91363C10.2147 9.85245 10.2266 9.79183 10.2498 9.73526C10.2731 9.67869 10.3074 9.62726 10.3506 9.58394C10.3938 9.54062 10.4451 9.50624 10.5016 9.48279C10.5581 9.45933 10.6187 9.44726 10.6798 9.44726H12.9189C13.0426 9.44726 13.1612 9.4964 13.2487 9.58386C13.3362 9.67132 13.3853 9.78994 13.3853 9.91363V10.7018C13.9144 9.90817 14.6985 9.2959 16.3717 9.2959C20.078 9.2959 20.0562 12.7568 20.0562 14.6577Z" fill="white"/>
</svg>
