<svg width="25" height="24" viewBox="0 0 25 24" fill="none" xmlns="http://www.w3.org/2000/svg">
<path d="M22.7107 0H2.50021C1.45377 0 0.605469 0.848303 0.605469 1.89474V22.1053C0.605469 23.1517 1.45377 24 2.50021 24H22.7107C23.7572 24 24.6055 23.1517 24.6055 22.1053V1.89474C24.6055 0.848303 23.7572 0 22.7107 0Z" fill="#FF5757"/>
<path d="M20.3785 7.18C19.7938 7.43536 19.1753 7.605 18.5422 7.68368C19.2096 7.28789 19.7085 6.66087 19.9443 5.92158C19.3196 6.29237 18.636 6.55351 17.9232 6.69368C17.4864 6.22655 16.9192 5.90167 16.2952 5.7613C15.6713 5.62092 15.0196 5.67155 14.4248 5.9066C13.83 6.14165 13.3197 6.55023 12.9603 7.07922C12.6009 7.6082 12.409 8.2331 12.4095 8.87263C12.4073 9.11674 12.4322 9.36034 12.4838 9.59895C11.2158 9.53667 9.97528 9.20761 8.84317 8.63326C7.71107 8.0589 6.71286 7.25218 5.91376 6.26579C5.50301 6.96749 5.37575 7.79956 5.558 8.59195C5.74025 9.38434 6.21824 10.0772 6.89428 10.5289C6.38969 10.5153 5.89578 10.3805 5.45428 10.1358V10.1705C5.4557 10.906 5.71029 11.6186 6.17525 12.1886C6.6402 12.7585 7.28719 13.1509 8.00744 13.3C7.73487 13.3716 7.45399 13.4067 7.17218 13.4042C6.96926 13.408 6.76652 13.39 6.56744 13.3505C6.77379 13.9831 7.17106 14.5362 7.7046 14.9337C8.23815 15.3313 8.88176 15.5537 9.54691 15.5705C8.41974 16.4516 7.03019 16.9301 5.59955 16.93C5.34464 16.9322 5.08986 16.9174 4.83691 16.8858C6.29566 17.8263 7.99601 18.3232 9.73165 18.3163C15.5974 18.3163 18.8043 13.4579 18.8043 9.24684C18.8043 9.10632 18.8043 8.97053 18.7932 8.83474C19.4178 8.38401 19.955 7.82328 20.3785 7.18Z" fill="white"/>
</svg>
