<svg width="17" height="16" viewBox="0 0 17 16" fill="none" xmlns="http://www.w3.org/2000/svg">
<path d="M9.63484 0.292893C9.24432 -0.0976311 8.61115 -0.0976311 8.22063 0.292893L1.22063 7.29289C0.830103 7.68342 0.830103 8.31658 1.22063 8.70711C1.61115 9.09763 2.24432 9.09763 2.63484 8.70711L2.92773 8.41421V15C2.92773 15.5523 3.37545 16 3.92773 16H5.92773C6.48002 16 6.92773 15.5523 6.92773 15V13C6.92773 12.4477 7.37545 12 7.92773 12H9.92773C10.48 12 10.9277 12.4477 10.9277 13V15C10.9277 15.5523 11.3754 16 11.9277 16H13.9277C14.48 16 14.9277 15.5523 14.9277 15V8.41421L15.2206 8.70711C15.6112 9.09763 16.2443 9.09763 16.6348 8.70711C17.0254 8.31658 17.0254 7.68342 16.6348 7.29289L9.63484 0.292893Z" fill="#A0A0A0"/>
</svg>
