<svg width="40" height="41" viewBox="0 0 40 41" fill="none" xmlns="http://www.w3.org/2000/svg">
<path d="M25.4422 2.92249H14.5571C7.86465 2.92249 2.4209 8.36498 2.4209 15.0562V25.9425C2.4209 32.635 7.86465 38.0787 14.5571 38.0787H25.4422C32.1334 38.0787 37.5772 32.635 37.5772 25.9425V15.0562C37.5784 8.36498 32.1347 2.92249 25.4422 2.92249Z" fill="#259245"/>
<path d="M20.6064 31.3962L33.4414 21.5475C34.5189 20.485 33.4526 19.5725 33.4526 19.5725L20.7726 9.61121C20.3201 9.25496 19.6814 9.25496 19.2289 9.61121L6.54886 19.5725C5.44136 20.6375 6.54886 21.5375 6.54886 21.5375L19.0739 31.3887C19.0726 31.3887 19.7951 32.0187 20.6064 31.3962Z" fill="#FFE000"/>
<path d="M19.9998 15.29C17.1273 15.29 14.791 17.6275 14.791 20.5C14.791 23.3725 17.1273 25.71 19.9998 25.71C22.8723 25.71 25.2085 23.3725 25.2085 20.5C25.2085 17.6275 22.8723 15.29 19.9998 15.29Z" fill="#103B9B"/>
<path d="M24.9248 22.175C24.7248 22.8 24.3998 23.375 23.9873 23.8637C23.2498 21.875 20.7123 20.6012 20.7123 20.6012C17.9623 19.3387 15.7623 19.8387 14.7998 20.1887C14.8373 19.4887 15.0248 18.8262 15.3123 18.2262C21.2123 17.6125 24.0623 20.925 24.9248 22.175Z" fill="#EFEFEF"/>
<path opacity="0.13" d="M37.575 15.05V25.9375C37.575 32.6375 32.1375 38.075 25.4375 38.075H14.5625C13.1375 38.075 11.775 37.8262 10.5 37.375L21.4625 36.4375C32.7875 34.875 33.225 27.225 33.225 27.225L33.175 13.9375C33.175 13.9375 32.9375 6.12499 23.525 2.92499H25.4375C32.1375 2.92499 37.575 8.36249 37.575 15.05Z" fill="#160204"/>
<path opacity="0.2" d="M2.4248 25.9375V15.05C2.4248 8.36249 7.8623 2.92624 14.5623 2.92624H18.7748C15.4748 3.58749 6.5623 6.14999 5.2123 14.35L5.1498 27.725C5.1498 27.725 5.4748 33.1737 7.8873 36.075C4.5998 33.9 2.4248 30.175 2.4248 25.9375Z" fill="white"/>
<path opacity="0.2" d="M16.9871 21.0875C16.9871 22.8625 17.7371 24.475 18.9496 25.6C16.5746 25.125 14.7871 23.0125 14.7871 20.5C14.7871 17.625 17.1246 15.2875 19.9996 15.2875C20.2871 15.2875 20.5621 15.3125 20.8371 15.3625C18.5746 16.2875 16.9871 18.5 16.9871 21.0875Z" fill="white"/>
<path opacity="0.2" d="M28.6876 25.2L20.6001 31.4C19.8001 32.0125 19.0751 31.3875 19.0751 31.3875L6.55011 21.5375C6.55011 21.5375 5.43761 20.6375 6.55011 19.575L16.0126 12.1375L9.30011 19.6875C9.30011 19.6875 8.38761 20.6387 9.30011 21.2L19.3501 29.95C19.3501 29.95 20.1626 30.2625 20.6501 29.95L28.6876 25.2Z" fill="white"/>
</svg>
