<svg width="184" height="45" viewBox="0 0 184 45" fill="none" xmlns="http://www.w3.org/2000/svg">
<path d="M176.64 44.0017H7.36C3.312 44.0017 0 40.7017 0 36.6684V7.33504C0 3.30171 3.312 0.00170898 7.36 0.00170898H176.64C180.688 0.00170898 184 3.30171 184 7.33504V36.6684C184 40.7017 180.688 44.0017 176.64 44.0017Z" fill="#EEF2F5"/>
<path d="M95.4453 27.0016V15.7281H93.4141L89.7734 24.6266H89.7109L86.0625 15.7281H84.0391V27.0016H85.6328V18.7047H85.6875L89.0938 26.9156H90.3906L93.7891 18.7047H93.8438V27.0016H95.4453ZM103.653 18.5016H103.731L106.169 27.0016H107.817L110.864 15.7281H109.044L106.958 24.5563H106.895L104.505 15.7281H102.88L100.497 24.5563H100.434L98.3484 15.7281H96.5281L99.5672 27.0016H101.223L103.653 18.5016ZM118.267 27.0016H120.119L116.048 15.7281H114.158L110.087 27.0016H111.908L112.939 23.9547H117.236L118.267 27.0016ZM115.064 17.6031H115.111L116.791 22.5485H113.384L115.064 17.6031ZM125.584 27.0016C127.983 27.0016 129.428 25.7985 129.428 23.8141C129.428 22.3141 128.397 21.2281 126.866 21.0563V20.9938C127.991 20.8063 128.873 19.736 128.873 18.5406C128.873 16.8375 127.561 15.7281 125.561 15.7281H121.061V27.0016H125.584ZM122.811 17.1578H125.139C126.405 17.1578 127.123 17.736 127.123 18.7828C127.123 19.9 126.287 20.525 124.772 20.525H122.811V17.1578ZM122.811 25.5719V21.861H125.123C126.78 21.861 127.639 22.486 127.639 23.7047C127.639 24.9235 126.803 25.5719 125.225 25.5719H122.811ZM130.339 27.0016H138.808V25.486H132.511V25.4313L138.659 16.9235V15.7281H130.527V17.236H136.511V17.2985L130.339 25.8063V27.0016ZM144.812 27.0016C147.211 27.0016 148.656 25.7985 148.656 23.8141C148.656 22.3141 147.625 21.2281 146.094 21.0563V20.9938C147.219 20.8063 148.102 19.736 148.102 18.5406C148.102 16.8375 146.789 15.7281 144.789 15.7281H140.289V27.0016H144.812ZM142.039 17.1578H144.367C145.633 17.1578 146.352 17.736 146.352 18.7828C146.352 19.9 145.516 20.525 144 20.525H142.039V17.1578ZM142.039 25.5719V21.861H144.352C146.008 21.861 146.867 22.486 146.867 23.7047C146.867 24.9235 146.031 25.5719 144.453 25.5719H142.039ZM149.364 23.861C149.473 25.9 151.161 27.1891 153.661 27.1891C156.333 27.1891 158.012 25.8688 158.012 23.7594C158.012 22.111 157.052 21.1813 154.739 20.6344L153.497 20.3297C152.044 19.9703 151.45 19.5016 151.45 18.7047C151.45 17.7047 152.38 17.0172 153.739 17.0172C155.098 17.0172 156.028 17.6969 156.13 18.8219H157.833C157.778 16.8766 156.145 15.5406 153.762 15.5406C151.356 15.5406 149.661 16.8766 149.661 18.8219C149.661 20.3922 150.622 21.361 152.692 21.861L154.153 22.2125C155.614 22.5719 156.231 23.0953 156.231 23.9703C156.231 24.9781 155.208 25.7125 153.786 25.7125C152.302 25.7125 151.216 24.9781 151.091 23.861H149.364ZM163.83 27.0016V17.236H167.275V15.7281H158.627V17.236H162.08V27.0016H163.83Z" fill="#FF5757"/>
<path d="M154.5 0.00195312H8C3.6 0.00195312 0 3.30195 0 7.33529V36.6686C0 40.702 3.6 44.002 8 44.002H163C163.5 44.002 164 44.002 164.5 44.002L154.5 0.00195312Z" fill="#FF5757"/>
<path d="M154.502 0.00170898C154.502 0.00170898 153 3.79866 147 6.53976C139.8 9.82909 138.344 9.21324 138.344 9.21324L164.5 44.0015L154.502 0.00170898Z" fill="#9E8DAF"/>
</svg>
