<svg width="49" height="48" viewBox="0 0 49 48" fill="none" xmlns="http://www.w3.org/2000/svg">
<g clip-path="url(#clip0_2_2162)">
<path d="M2.9 28.8H3.69997V34.4C3.70259 36.608 5.49191 38.3973 7.7 38.4C8.56841 38.3971 9.41169 38.1086 10.1 37.5792V38.4C10.1 40.6091 11.8909 42.4 14.1 42.4C16.3092 42.4 18.1001 40.6091 18.1001 38.4V28.8H30.9V38.4C30.9 40.6091 32.6909 42.4 34.9001 42.4C37.1092 42.4 38.9001 40.6091 38.9001 38.4V37.5792C39.5884 38.1086 40.4317 38.3971 41.3001 38.4C43.5081 38.3974 45.2974 36.6081 45.3001 34.4V28.8H46.1001C47.4255 28.8 48.5001 27.7254 48.5001 26.4V21.6C48.5001 20.2746 47.4256 19.2 46.1001 19.2H45.3001V13.6C45.2975 11.392 43.5082 9.60273 41.3001 9.60001C40.4317 9.60291 39.5884 9.89138 38.9001 10.4208V9.60001C38.9001 7.39088 37.1092 5.59998 34.9001 5.59998C32.6909 5.59998 30.9 7.39088 30.9 9.60001V19.2H18.1V9.60001C18.1 7.39088 16.3091 5.59998 14.0999 5.59998C11.8908 5.59998 10.1 7.39088 10.1 9.60001V10.4208C9.41169 9.89138 8.56841 9.60291 7.7 9.60001C5.492 9.60263 3.70269 11.3919 3.69997 13.6V19.2H2.9C1.57456 19.2 0.5 20.2746 0.5 21.6V26.4C0.5 27.7254 1.57456 28.8 2.9 28.8ZM46.1 20.8C46.5418 20.8 46.9 21.1583 46.9 21.6V26.4C46.9 26.8419 46.5418 27.2 46.1 27.2H45.3V20.7999H46.1V20.8ZM41.3 11.2C42.6254 11.2 43.7 12.2746 43.7 13.6V34.4001C43.7 35.7255 42.6254 36.8001 41.3 36.8001C39.9746 36.8001 38.9 35.7255 38.9 34.4001V13.6C38.9 12.2745 39.9746 11.2 41.3 11.2ZM32.5 9.60001C32.5 8.27457 33.5745 7.20001 34.9 7.20001C36.2254 7.20001 37.3 8.27457 37.3 9.60001V38.4C37.3 39.7254 36.2254 40.8 34.9 40.8C33.5745 40.8 32.5 39.7254 32.5 38.4V9.60001ZM30.9 20.8V27.2001H18.1V20.8H30.9ZM11.7 9.60001C11.7 8.27457 12.7746 7.20001 14.1 7.20001C15.4255 7.20001 16.5 8.27457 16.5 9.60001V38.4C16.5 39.7254 15.4255 40.8 14.1 40.8C12.7745 40.8 11.7 39.7254 11.7 38.4V9.60001ZM5.3 13.6C5.3 12.2745 6.37456 11.2 7.7 11.2C9.02544 11.2 10.1 12.2746 10.1 13.6V34.4001C10.1 35.7255 9.02544 36.8001 7.7 36.8001C6.37456 36.8001 5.3 35.7255 5.3 34.4001V13.6ZM2.10003 21.6C2.10003 21.1582 2.45825 20.8 2.9 20.8H3.69997V27.2001H2.9C2.45816 27.2001 2.10003 26.8419 2.10003 26.4001V21.6Z" fill="black"/>
</g>
<defs>
<clipPath id="clip0_2_2162">
<rect width="48" height="48" fill="white" transform="translate(0.5)"/>
</clipPath>
</defs>
</svg>
