<svg width="40" height="41" viewBox="0 0 40 41" fill="none" xmlns="http://www.w3.org/2000/svg">
<path d="M25.4422 2.92252H14.5571C7.86465 2.92252 2.4209 8.36627 2.4209 15.0575V25.9438C2.4209 32.635 7.86465 38.0788 14.5571 38.0788H25.4422C32.1334 38.0788 37.5772 32.635 37.5772 25.9438V15.0575C37.5784 8.36502 32.1334 2.92252 25.4422 2.92252Z" fill="#EE1B2E"/>
<path d="M37.5586 14.6675C37.3499 8.15752 32.0024 2.92252 25.4436 2.92252H14.5586C7.99863 2.92252 2.65113 8.15752 2.44238 14.6675H37.5586Z" fill="#282828"/>
<path d="M2.44043 26.3325C2.64918 32.8425 7.99668 38.0775 14.5567 38.0775H25.4417C32.0004 38.0775 37.3479 32.8425 37.5567 26.3325H2.44043Z" fill="#FDC301"/>
<path opacity="0.13" d="M37.575 15.0625V25.9375C37.575 32.6375 32.1375 38.075 25.4375 38.075H14.5625C13.1362 38.075 11.775 37.825 10.5 37.375L21.4625 36.4375C32.7887 34.875 33.225 27.225 33.225 27.225L33.175 13.9375C33.175 13.9375 32.9375 6.12502 23.525 2.92502H25.4362C32.1375 2.92502 37.575 8.36252 37.575 15.0625Z" fill="#160204"/>
<path opacity="0.2" d="M2.4248 25.9375V15.0625C2.4248 8.36252 7.8623 2.92502 14.5623 2.92502H18.7736C15.4736 3.58752 6.56105 6.15002 5.21105 14.35L5.14855 27.725C5.14855 27.725 5.47355 33.175 7.8848 36.075C4.5998 33.9 2.4248 30.175 2.4248 25.9375Z" fill="white"/>
</svg>
