<svg width="348" height="278" viewBox="0 0 348 278" fill="none" xmlns="http://www.w3.org/2000/svg">
<g clip-path="url(#clip0_2_1482)">
<path d="M256.221 20.0556C222.813 20.0556 195.251 44.9401 190.982 77.1598C173.443 63.6962 151.542 55.7109 127.693 55.7109C70.5279 55.7109 24.1279 102.044 24.1279 159.334C24.1279 216.531 70.5279 262.957 127.693 262.957C184.858 262.957 231.258 216.531 231.258 159.334C231.258 155.063 230.979 150.885 230.515 146.706C238.403 150.049 247.126 151.906 256.221 151.906C292.598 151.906 322.109 122.379 322.109 85.9808C322.109 49.5827 292.598 20.0556 256.221 20.0556Z" fill="#F6F4F0"/>
<path d="M180.125 156.456L76.7455 218.853L0.185547 62.3963L103.658 -0.000488281L180.125 156.456Z" fill="#D8CAB2"/>
<path d="M0.185547 62.3963L112.288 3.3422L125.93 31.1979L0.185547 62.3963Z" fill="#D8CAB2"/>
<path d="M0.185547 62.3963L107.926 1.3923L113.494 12.8131L0.185547 62.3963Z" fill="#D8CAB2"/>
<path d="M116.721 5.394L0.277344 62.4166L76.8085 218.875L193.253 161.852L116.721 5.394Z" fill="#FEFCE4"/>
<path d="M112.288 3.3422L0.185547 62.3963L107.926 1.3923" stroke="#EFE5D0" stroke-miterlimit="10"/>
<path d="M23.5711 83.8452L17.3535 71.1244L19.1167 70.2888L26.3551 74.7457C28.0255 75.767 29.4175 76.7884 30.7167 77.8098C29.6959 76.1385 28.9535 74.6528 27.9327 72.7029L25.3343 67.3175L26.9119 66.5747L33.1295 79.2954L31.4591 80.1311L24.2207 75.6742C22.6431 74.6528 21.0655 73.6314 19.7663 72.6101L19.6735 72.4244C20.6015 74.0029 21.3439 75.4885 22.3647 77.6241L25.0559 83.1024L23.5711 83.8452Z" fill="#0A5265"/>
<path d="M39.6259 68.5246L34.7075 70.9387L36.9347 75.5813L42.5027 72.8886L43.1523 74.2814L36.0067 77.8098L29.7891 64.9962L36.6563 61.6535L37.3059 63.0463L32.1091 65.6461L34.0579 69.6388L38.9763 67.2246L39.6259 68.5246Z" fill="#0A5265"/>
<path d="M47.5135 72.0529L38.0479 60.9107L39.8111 60.075L44.4511 65.8318C45.5647 67.2246 46.7711 68.6174 47.5135 69.8245C47.1423 68.4317 46.7711 66.7604 46.3999 64.9033L44.9151 57.6608L46.6783 56.8252L51.4111 62.582C52.5247 63.8819 53.6383 65.2747 54.4735 66.4818C54.0095 64.9962 53.7311 63.3248 53.3599 61.5606L51.9679 54.0396L53.6383 53.2039L56.2367 67.7817L54.4735 68.6174L49.6479 62.7677C48.4415 61.3749 47.6063 60.1678 46.7711 59.0536C47.1423 60.4464 47.5135 61.8392 47.7919 63.6962L49.1839 71.2173L47.5135 72.0529Z" fill="#0A5265"/>
<path d="M60.2275 63.3248C61.1555 63.4177 62.4547 63.232 63.5683 62.6749C65.2387 61.8392 65.7955 60.4464 65.1459 59.1465C64.5891 57.9394 63.5683 57.568 61.5267 57.7537C59.1139 58.0322 57.2579 57.568 56.4227 55.8038C55.4947 53.8539 56.3299 51.5326 58.8355 50.3255C60.1347 49.6755 61.2483 49.4898 61.9907 49.5827L62.1763 51.1612C61.6195 51.1612 60.5987 51.1612 59.4851 51.7183C57.7219 52.554 57.6291 53.9467 58.0003 54.7824C58.5571 55.9895 59.6707 56.1752 61.7123 55.9895C64.3107 55.8038 65.8883 56.2681 66.8163 58.1251C67.7443 60.075 67.1875 62.4892 64.1251 63.9748C62.9187 64.5319 61.3411 64.9033 60.5059 64.7176L60.2275 63.3248Z" fill="#0A5265"/>
<path d="M114.994 15.7644L12.959 65.7028L13.6114 67.0373L115.647 17.099L114.994 15.7644Z" fill="#0A5265"/>
<path d="M183.005 154.861L80.9814 204.822L81.6342 206.156L183.658 156.195L183.005 154.861Z" fill="#0A5265"/>
<path d="M87.8857 54.7795L23.1133 86.4806L23.7657 87.8152L88.5382 56.1141L87.8857 54.7795Z" fill="#0A5265"/>
<path d="M112.836 11.3822L96.082 19.5866L97.5099 22.5056L114.264 14.3012L112.836 11.3822Z" fill="#0A5265"/>
<path d="M90.2438 59.6577L25.4785 91.3732L42.5716 126.318L107.337 94.6023L90.2438 59.6577Z" fill="#747554"/>
<path d="M127.489 41.3537L95.2314 57.1503L97.1488 61.0701L129.406 45.2735L127.489 41.3537Z" fill="#1F98D7"/>
<path d="M130.37 47.3106L98.1123 63.1071L100.03 67.0269L132.287 51.2304L130.37 47.3106Z" fill="#1F98D7"/>
<path d="M133.334 53.2239L101.076 69.0204L102.994 72.9402L135.251 57.1437L133.334 53.2239Z" fill="#1F98D7"/>
<path d="M136.215 59.1773L103.957 74.9738L105.874 78.8936L138.132 63.0971L136.215 59.1773Z" fill="#1F98D7"/>
<path d="M139.095 65.1342L106.837 80.9307L108.754 84.8505L141.012 69.054L139.095 65.1342Z" fill="#1F98D7"/>
<path d="M142.632 72.428L88.5361 98.9188L128.311 180.234L182.407 153.743L142.632 72.428Z" fill="#FFC6B6"/>
<path d="M89.4943 107.996L44.4004 130.078L57.21 156.266L102.304 134.183L89.4943 107.996Z" fill="#FF5757"/>
<path d="M87.123 113.022L50.1143 131.145L50.767 132.479L87.7757 114.356L87.123 113.022Z" fill="#0A5265"/>
<path d="M89.3681 117.673L52.3594 135.796L53.0121 137.131L90.0208 119.007L89.3681 117.673Z" fill="#0A5265"/>
<path d="M91.6552 122.2L54.6465 140.323L55.2992 141.657L92.3079 123.534L91.6552 122.2Z" fill="#0A5265"/>
<path d="M93.8993 126.852L56.8906 144.975L57.5433 146.309L94.5521 128.186L93.8993 126.852Z" fill="#0A5265"/>
<path d="M96.1445 131.503L59.1357 149.626L59.7885 150.96L96.7972 132.837L96.1445 131.503Z" fill="#0A5265"/>
<path d="M120.889 128.209L58.458 158.782L80.4057 203.651L142.837 173.079L120.889 128.209Z" fill="#1DC9D6"/>
<path d="M123.4 34.8682L111.563 40.6644L112.869 43.3332L124.705 37.537L123.4 34.8682Z" fill="#0A5265"/>
<path d="M121.881 31.5907L114.213 35.3459L115.518 38.0147L123.187 34.2595L121.881 31.5907Z" fill="#0A5265"/>
<path opacity="0.2" d="M116.743 172.705V221.452L279.607 234.08V174.748L287.123 174.841L295.383 113.929L108.298 128.971L109.783 172.612L116.743 172.705Z" fill="#0A5265"/>
<path opacity="0.2" d="M288.423 211.332L302.343 212.631L334.823 107.151L300.208 114.394L288.423 211.332Z" fill="#0A5265"/>
<path opacity="0.2" d="M287.68 217.274L285.731 234.08H301.971L301.693 218.203L287.68 217.274Z" fill="#0A5265"/>
<path d="M276.08 228.416L113.216 218.853V151.442H276.08V228.416Z" fill="#747554"/>
<path d="M104.771 124.793L106.256 168.341L283.597 170.569L291.856 109.751L104.771 124.793Z" fill="#FF5757"/>
<path d="M116.186 128.6C118.32 128.136 121.661 127.857 125.094 127.857C130.013 127.857 133.075 128.693 135.488 130.643C137.437 132.128 138.643 134.357 138.643 137.328C138.643 140.949 136.23 144.199 132.24 145.592V145.685C135.859 146.613 140.035 149.585 140.035 155.156C140.035 158.406 138.736 160.913 136.88 162.77C134.282 165.184 130.013 166.298 123.795 166.298C120.454 166.298 117.856 166.112 116.186 165.834V128.6ZM121.011 144.106H125.466C130.662 144.106 133.632 141.414 133.632 137.792C133.632 133.336 130.291 131.664 125.373 131.664C123.146 131.664 121.846 131.85 121.011 132.036V144.106ZM121.011 162.213C121.939 162.398 123.331 162.398 125.094 162.398C130.106 162.398 134.746 160.541 134.746 155.063C134.746 149.863 130.291 147.728 125.002 147.728H121.011V162.213Z" fill="#FEFCE4"/>
<path d="M146.531 128.6C149.037 128.136 152.563 127.857 155.904 127.857C161.101 127.857 164.442 128.786 166.854 130.921C168.803 132.593 169.824 135.193 169.824 138.071C169.824 143.085 166.669 146.335 162.678 147.728V147.913C165.555 148.935 167.318 151.627 168.246 155.527C169.453 160.82 170.381 164.441 171.123 165.927H166.112C165.462 164.905 164.627 161.563 163.606 156.92C162.493 151.72 160.451 149.77 155.997 149.585H151.357V165.927H146.438V128.6H146.531ZM151.45 145.871H156.461C161.658 145.871 164.998 142.992 164.998 138.721C164.998 133.8 161.472 131.757 156.275 131.664C153.955 131.664 152.285 131.85 151.45 132.128V145.871Z" fill="#FEFCE4"/>
<path d="M196.272 148.192H181.61V161.841H197.943V165.927H176.691V128.136H197.107V132.221H181.61V144.199H196.272V148.192Z" fill="#FEFCE4"/>
<path d="M210.378 154.042L206.48 165.927H201.376L214.182 128.136H220.029L232.928 165.927H227.731L223.741 154.042H210.378ZM222.72 150.235L219.008 139.371C218.173 136.864 217.616 134.635 217.059 132.5H216.966C216.41 134.728 215.76 137.05 215.018 139.371L211.306 150.327H222.72V150.235Z" fill="#FEFCE4"/>
<path d="M238.589 128.136H243.507V146.335H243.693C244.714 144.849 245.734 143.549 246.662 142.342L258.17 128.136H264.202L250.56 144.199L265.315 165.927H259.562L247.126 147.356L243.507 151.535V165.927H238.589V128.136Z" fill="#FEFCE4"/>
<path d="M273.853 128.136V165.927H268.935V128.136H273.853Z" fill="#FEFCE4"/>
<path d="M282.298 165.927V128.136H287.587L299.651 147.263C302.435 151.72 304.663 155.713 306.426 159.52L306.519 159.427C306.055 154.413 305.962 149.77 305.962 143.921V128.136H310.602V165.927H305.683L293.805 146.706C291.207 142.528 288.608 138.164 286.752 134.078L286.567 134.171C286.845 138.907 286.938 143.456 286.938 149.77V165.927H282.298Z" fill="#FEFCE4"/>
<path d="M348 164.255C345.773 164.998 341.504 166.298 336.4 166.298C330.646 166.298 326.006 164.812 322.294 161.284C319.046 158.127 317.005 153.113 317.005 147.171C317.098 135.935 324.8 127.672 337.421 127.672C341.782 127.672 345.216 128.6 346.794 129.436L345.587 133.428C343.546 132.5 341.04 131.757 337.235 131.757C328.048 131.757 322.016 137.514 322.016 146.985C322.016 156.549 327.77 162.213 336.586 162.213C339.741 162.213 341.968 161.748 343.082 161.191V149.956H335.379V146.056H348V164.255Z" fill="#FEFCE4"/>
<path d="M153.77 180.876V212.631H144.954L132.89 198.239V212.631H122.496V180.876H131.312L143.376 195.268V180.876H153.77Z" fill="#F6F4F0"/>
<path d="M185.322 204.553V212.631H158.967V180.876H184.765V188.954H169.453V192.668H182.909V200.375H169.453V204.553H185.322Z" fill="#F6F4F0"/>
<path d="M240.631 180.876L230.515 212.631H219.008L213.904 195.639L208.522 212.631H197.015L186.899 180.876H197.943L203.511 198.889L209.357 180.876H219.194L224.762 199.168L230.608 180.876H240.631Z" fill="#F6F4F0"/>
<path d="M241.002 210.032L244.436 202.232C247.405 203.996 251.396 205.11 254.922 205.11C257.984 205.11 259.005 204.46 259.005 203.346C259.005 199.354 241.466 202.603 241.466 190.718C241.466 184.776 246.384 180.04 256.221 180.04C260.49 180.04 264.852 180.969 268.192 182.826L264.944 190.625C261.789 189.047 258.912 188.304 256.128 188.304C252.973 188.304 252.045 189.233 252.045 190.347C252.045 194.154 269.584 190.997 269.584 202.696C269.584 208.546 264.666 213.374 254.829 213.374C249.54 213.374 244.157 211.981 241.002 210.032Z" fill="#F6F4F0"/>
<path d="M192.931 99.9087L201.932 88.3021C201.932 88.3021 190.518 75.3028 200.819 64.6248C211.119 53.9467 232.835 50.0469 241.372 66.389C249.817 82.8238 234.319 101.58 222.905 101.673C211.491 101.766 204.438 93.3162 204.438 93.3162L192.931 99.9087Z" fill="#FFC6B6"/>
<path d="M241.28 66.4818C242.672 68.896 243.507 71.5887 243.878 74.4671C244.249 77.2527 243.971 80.1311 243.228 82.9167C241.836 88.395 238.681 93.409 234.412 97.2159C232.278 99.073 229.865 100.744 227.081 101.673C225.689 102.137 224.297 102.416 222.812 102.509L220.678 102.416C219.936 102.323 219.286 102.23 218.544 102.137C212.883 101.116 207.779 98.0516 203.974 93.7804L204.438 93.8733C202.489 94.8946 200.54 95.916 198.592 96.9374C196.643 97.9588 194.694 98.9801 192.745 100.002C194.601 98.7944 196.457 97.6802 198.406 96.566C200.262 95.4518 202.211 94.2447 204.067 93.2233L204.345 93.0376L204.531 93.3161C206.387 95.266 208.614 96.9374 211.027 98.2373C213.44 99.5373 216.038 100.466 218.729 100.93L220.771 101.209L222.812 101.301C224.112 101.301 225.411 101.023 226.71 100.559C229.216 99.6301 231.536 98.1445 233.577 96.3803C237.66 92.759 240.816 88.0236 242.393 82.8238C243.228 80.224 243.507 77.4384 243.321 74.6528C243.228 71.7744 242.486 69.0817 241.28 66.4818Z" fill="#0A5265"/>
<path d="M219.379 69.8245L236.176 73.5386L238.867 78.8312L234.041 83.1952L216.409 81.1525L219.379 69.8245Z" fill="#0A5265"/>
<path d="M218.915 66.5747L226.246 75.6742L217.987 85.238L195.993 83.2881L199.148 60.4464L218.915 66.5747Z" fill="#286F7F"/>
<path d="M188.477 79.1097C192.56 83.0095 199.056 82.9167 202.954 78.8312C206.851 74.7457 206.758 68.246 202.675 64.3462C198.592 60.4464 192.096 60.5393 188.198 64.6248C184.301 68.7103 184.486 75.2099 188.477 79.1097Z" fill="#FF5757"/>
<path d="M202.304 63.9748C203.417 64.7176 204.438 65.739 205.18 66.8532C205.923 68.0603 206.387 69.4531 206.48 70.8459C206.758 73.7243 205.644 76.5099 203.881 78.7383C202.118 80.8739 199.427 82.5453 196.643 82.731C195.251 82.8238 193.766 82.5453 192.56 82.081C191.26 81.5239 190.147 80.6882 189.219 79.7597C191.446 81.2453 194.044 82.1739 196.55 81.7096C199.056 81.3382 201.283 79.8526 202.86 77.9027C204.438 75.9528 205.459 73.4457 205.459 70.9387C205.366 68.3389 204.252 65.8319 202.304 63.9748Z" fill="#0A5265"/>
<path d="M225.411 75.3956C224.019 75.3956 222.534 75.3028 221.142 75.2099C219.75 75.1171 218.358 74.9314 216.966 74.7457C215.574 74.56 214.182 74.2814 212.79 74.0029C211.398 73.6314 210.006 73.26 208.707 72.7029C210.099 72.7029 211.584 72.7958 212.976 72.9815C214.368 73.0743 215.76 73.26 217.152 73.4457C218.544 73.6314 219.936 73.91 221.328 74.1886C222.72 74.56 224.112 74.9314 225.411 75.3956Z" fill="#0A5265"/>
<path d="M201.191 72.7029C201.469 72.7029 201.747 72.7958 201.84 73.0743C202.026 73.3529 201.933 73.7243 201.84 73.91C201.747 74.1886 201.469 74.2814 201.283 74.3743C201.098 74.4671 200.819 74.3743 200.541 74.1886C200.541 73.91 200.634 73.6314 200.634 73.5386C200.634 73.3529 200.634 73.26 200.727 73.26C200.727 73.26 200.819 73.26 200.912 73.1672C200.912 73.0743 201.005 72.9815 201.191 72.7029Z" fill="#0A5265"/>
<path d="M199.334 75.0242C199.613 75.2099 199.706 75.4885 199.706 75.6742C199.706 75.9528 199.613 76.2313 199.334 76.417C199.056 76.6027 198.778 76.6956 198.499 76.6027C198.221 76.5099 198.035 76.3242 198.035 76.0456C198.314 75.8599 198.406 75.6742 198.499 75.5814C198.592 75.4885 198.499 75.3956 198.592 75.3956C198.592 75.3956 198.685 75.3956 198.778 75.3028L199.334 75.0242Z" fill="#0A5265"/>
<path d="M198.314 72.3315C198.87 72.5172 198.778 73.0743 198.592 73.26C198.499 73.3529 198.314 73.4457 198.221 73.4457C198.035 73.4457 197.942 73.3529 197.664 73.1672C197.664 72.8886 197.571 72.7029 197.571 72.6101C197.571 72.5172 197.571 72.4244 197.571 72.4244C197.664 72.3315 197.757 72.5172 198.314 72.3315Z" fill="#0A5265"/>
<path d="M194.973 78.8312C195.159 79.1097 195.251 79.2954 195.251 79.4811C195.251 79.6669 195.159 79.9454 194.88 80.0383C194.602 80.224 194.231 80.224 194.045 80.0383C193.859 79.8526 193.767 79.6669 193.767 79.3883C194.045 79.2026 194.231 79.1097 194.231 79.0169C194.323 78.924 194.138 78.8312 194.138 78.924C194.138 78.924 194.138 78.924 194.323 78.924C194.509 78.924 194.695 78.8312 194.973 78.8312Z" fill="#0A5265"/>
<path d="M215.204 75.3956C215.482 76.0456 215.76 76.6956 215.946 77.3456C216.224 77.9955 216.41 78.6455 216.596 79.2954C216.967 80.5954 217.245 82.081 216.781 83.5667C216.503 82.9167 216.224 82.2667 215.946 81.6168C215.668 80.9668 215.482 80.3168 215.296 79.6669C214.925 78.3669 214.647 76.7884 215.204 75.3956Z" fill="#0A5265"/>
<path d="M211.676 74.9314C212.047 75.6742 212.419 76.417 212.604 77.1598C212.883 77.9027 213.161 78.6455 213.347 79.4811C213.532 80.224 213.718 81.0596 213.811 81.8953C213.903 82.731 213.903 83.5667 213.811 84.4023C213.439 83.6595 213.068 82.9167 212.79 82.1739C212.511 81.4311 212.233 80.6882 212.047 79.8526C211.862 79.1097 211.676 78.2741 211.583 77.4384C211.491 76.6027 211.491 75.7671 211.676 74.9314Z" fill="#0A5265"/>
<path d="M209.357 78.1812C209.635 78.4598 209.821 78.7383 210.006 79.0169C210.192 79.2954 210.192 79.574 210.285 79.8526C210.378 80.1311 210.378 80.4097 210.285 80.6882C210.285 80.9668 210.192 81.3382 210.006 81.7096C209.635 81.5239 209.357 81.2453 209.264 80.9668C209.078 80.6882 208.986 80.4097 208.893 80.0383C208.8 79.7597 208.8 79.3883 208.893 79.1097C208.986 78.8312 209.078 78.4598 209.357 78.1812Z" fill="#0A5265"/>
<path d="M57.5357 277.628C53.1741 279.114 48.6269 276.05 48.2557 271.407L46.2141 242.53C46.1213 241.137 46.9565 239.837 48.2557 239.466L56.1437 236.866C57.9997 236.216 59.9485 237.516 60.1341 239.559L62.2684 270.478C62.6397 273.635 60.5981 276.607 57.5357 277.628Z" fill="#EE7E60"/>
<path d="M120.454 232.316L36.6558 246.523L24.6846 210.31L100.502 171.776L120.454 232.316Z" fill="#0A5265"/>
<path d="M26.7265 246.058L16.7969 218.853L24.6849 210.31L36.5633 246.523L26.7265 246.058Z" fill="#FFC6B6"/>
<path d="M104.307 204.089C109.782 220.802 117.113 233.43 120.454 232.316C123.888 231.202 122.217 216.717 116.649 200.004C111.174 183.29 103.843 170.662 100.502 171.776C97.0684 172.891 98.7388 187.376 104.307 204.089Z" fill="#FFC6B6"/>
<path d="M43.8013 228.509C42.3165 228.973 40.7389 228.231 40.2749 226.745L37.3053 217.831C36.8413 216.346 37.5837 214.767 39.0685 214.303C40.5533 213.839 42.1309 214.581 42.5949 216.067L45.5645 224.981C46.1213 226.466 45.2861 228.045 43.8013 228.509Z" fill="#EE7E60"/>
<path d="M106.999 211.796L113.031 209.846L107.927 194.432L101.895 196.382C101.895 196.382 102.915 200.004 104.215 204.182C105.699 208.267 106.999 211.796 106.999 211.796Z" fill="#FF5757"/>
<path d="M108.948 202.603C110.34 206.875 112.196 210.124 113.031 209.846C113.866 209.567 113.495 205.853 112.103 201.582C110.711 197.311 108.855 194.061 108.02 194.34C107.092 194.618 107.463 198.332 108.948 202.603Z" fill="#FBF9EE"/>
<path d="M282.484 92.1091L288.052 71.8673C288.052 71.8673 319.511 65.8318 316.17 39.8332C312.829 13.7417 294.919 7.4277 282.02 9.3776C269.12 11.3275 258.077 17.1772 255.943 32.5907C253.901 48.0042 254.644 54.7824 262.903 62.3034C269.956 68.7103 275.431 70.2888 275.431 70.2888L282.484 92.1091Z" fill="#747554"/>
<path d="M279.143 81.7096C279.607 83.4738 280.163 85.238 280.627 87.0022L282.112 92.2948L282.483 93.409L282.855 92.2948L285.824 82.2667L287.309 77.2527L288.701 72.2387L288.237 72.7029C292.135 71.8673 295.939 70.5673 299.466 68.8031C303.085 67.0389 306.426 64.8105 309.303 61.932C310.695 60.5393 311.994 58.9608 313.015 57.1966C313.571 56.3609 314.035 55.4324 314.499 54.5967C314.871 53.6682 315.335 52.7397 315.613 51.8111C315.984 50.8826 316.17 49.8612 316.355 48.9327C316.448 47.9113 316.634 46.9828 316.634 45.9614C316.819 44.0115 316.541 41.9688 316.263 40.0189C316.541 43.9187 316.263 47.9113 314.871 51.5326C313.571 55.2467 311.251 58.4037 308.467 61.0964C305.683 63.7891 302.343 65.8318 298.909 67.596C295.383 69.2674 291.763 70.6602 287.959 71.4958L287.587 71.5887L287.495 71.9601L286.103 77.067L284.803 82.1739L282.112 92.0162H282.762L280.906 86.8165C280.349 85.1451 279.699 83.4738 279.143 81.7096Z" fill="#0A5265"/>
<path d="M276.822 64.7176L267.078 26.9267L296.589 20.427L301.414 58.3108L276.822 64.7176Z" fill="#FEFCE4"/>
<path d="M276.822 64.7176L271.626 46.1471L266.336 27.1124L266.15 26.3696L266.893 26.1839L281.648 22.8412C286.566 21.727 291.485 20.6127 296.403 19.5914L297.331 19.4057L297.424 20.3342L299.744 39.2761C300.115 42.433 300.486 45.59 300.858 48.747L301.878 58.218L301.971 58.6822L301.507 58.7751C297.331 59.7964 293.155 60.8178 288.979 61.7463L276.822 64.7176ZM276.822 64.7176L289.165 61.1892C293.248 59.9821 297.238 58.8679 301.322 57.7537L300.858 58.4037L299.558 48.9327C299.094 45.7757 298.723 42.6188 298.259 39.4618L295.754 20.5199L296.774 21.2627C291.856 22.3769 286.938 23.3983 282.019 24.4197L267.264 27.6695L267.821 26.741L272.275 45.4972L276.822 64.7176Z" fill="#0A5265"/>
<path d="M276.637 56.8252C276.822 55.4324 277.008 54.0396 277.286 52.6468L277.379 52.3683L277.658 52.554L280.534 55.061L279.978 55.2467V47.2614C279.978 44.5687 280.07 41.9688 280.07 39.2761V37.9761L281.091 38.8118C284.989 41.9688 288.886 45.1258 292.784 48.2827L291.763 48.8399C291.392 45.4043 290.928 41.9688 290.65 38.5332L290.093 33.3335C289.907 31.5693 289.814 29.898 289.629 28.1338V27.9481H289.814C291.206 27.8552 292.598 27.6695 293.99 27.5767C292.598 27.8552 291.206 28.0409 289.814 28.3195L290 28.1338C290.278 29.8051 290.557 31.5693 290.835 33.2407L291.578 38.3475C292.134 41.7831 292.598 45.2186 293.062 48.6542L293.248 50.2326L292.042 49.2113C288.144 46.0543 284.246 42.8973 280.349 39.7403L281.37 39.2761C281.277 41.9688 281.184 44.5687 280.998 47.2614L280.627 55.2467V55.9895L280.163 55.4324L277.472 52.7397L277.75 52.6468C277.379 54.1324 277.008 55.4324 276.637 56.8252Z" fill="#FB8914"/>
<path d="M141.705 25.3482L163.792 18.2914C166.019 17.5486 167.318 15.1344 166.576 12.906C165.833 10.6775 163.421 9.3776 161.193 10.1204L139.107 17.1772C136.88 17.92 135.581 20.3342 136.323 22.5626C136.973 24.7911 139.385 26.091 141.705 25.3482Z" fill="#0A5265"/>
<path d="M157.11 47.7256L181.052 40.1117L177.804 38.8118C175.763 37.9761 174.185 36.3048 173.535 34.262L166.575 12.3489C165.926 10.399 163.884 9.28475 161.935 9.93471L138.364 17.4558L139.385 18.1057C141.519 19.4985 143.004 21.5413 143.839 23.9554L150.243 44.1972C151.078 46.9828 154.233 48.6542 157.11 47.7256Z" fill="#FF5757"/>
<g opacity="0.5">
<path opacity="0.5" d="M164.189 18.0614L148.445 23.0644L148.923 24.5688L164.667 19.5659L164.189 18.0614Z" fill="#FEFCE4"/>
</g>
<g opacity="0.5">
<path opacity="0.5" d="M162.888 13.7724L147.145 18.7753L147.622 20.2798L163.366 15.2769L162.888 13.7724Z" fill="#FEFCE4"/>
</g>
<g opacity="0.5">
<path opacity="0.5" d="M165.76 22.9808L150.017 27.9837L150.494 29.4882L166.238 24.4852L165.76 22.9808Z" fill="#FEFCE4"/>
</g>
<g opacity="0.5">
<path opacity="0.5" d="M167.163 27.4402L151.419 32.4432L151.896 33.9476L167.64 28.9447L167.163 27.4402Z" fill="#FEFCE4"/>
</g>
<path d="M138.457 17.6415C144.489 15.6916 150.428 13.8345 156.46 11.8846C157.852 11.4204 159.244 10.9561 160.636 10.5847C161.286 10.399 161.843 10.1204 162.492 10.1204C164.256 9.93471 165.74 10.6775 166.39 12.3489C168.339 17.7343 169.824 23.2126 171.587 28.598C172.144 30.4551 172.793 32.405 173.35 34.262C173.443 34.5406 173.907 34.4477 173.814 34.0763C172.236 29.0623 170.659 24.0483 168.988 18.9414C168.524 17.5486 168.06 16.063 167.596 14.6702C167.318 13.6488 167.04 12.5346 166.576 11.6061C165.184 8.63478 162.028 9.56331 159.616 10.3061C152.47 12.5346 145.324 14.8559 138.272 17.0843C137.993 17.2701 138.179 17.7343 138.457 17.6415Z" fill="#0A5265"/>
<path d="M142.076 21.2627C142.819 22.3769 143.097 23.8626 143.561 25.0697C144.396 27.4838 145.231 29.9908 146.067 32.4978C146.902 35.0049 147.737 37.5119 148.572 40.0189C149.036 41.5045 149.407 43.083 149.964 44.5687C150.428 45.8686 151.913 46.9828 153.119 47.5399C154.697 48.3756 156.182 48.2827 157.852 47.7256C161.843 46.4257 165.833 45.2186 169.916 43.9187C173.628 42.7116 177.433 41.5045 181.145 40.3903C181.423 40.2974 181.331 39.8332 180.959 39.926C173.628 42.2473 166.297 44.5687 158.966 46.89C157.852 47.2614 156.553 47.8185 155.347 47.7256C153.583 47.6328 151.171 46.1471 150.428 44.5687C149.871 43.3616 149.593 41.8759 149.222 40.576C148.479 38.1618 147.644 35.7477 146.902 33.3335C145.974 30.6408 145.046 27.8552 144.118 25.1625C143.654 23.8626 143.283 22.1912 142.54 20.9841C142.355 20.7056 141.891 20.9841 142.076 21.2627Z" fill="#0A5265"/>
<g opacity="0.5">
<path opacity="0.5" d="M168.816 32.5399L153.072 37.5429L153.55 39.0473L169.293 34.0444L168.816 32.5399Z" fill="#FEFCE4"/>
</g>
<g opacity="0.5">
<path opacity="0.5" d="M171.611 37.3692L155.867 42.3722L156.345 43.8766L172.088 38.8737L171.611 37.3692Z" fill="#FEFCE4"/>
</g>
<path d="M100.409 248.658L140.592 252.094L136.88 266.022L100.409 248.658Z" fill="#0A5265"/>
<path d="M30.7168 176.326C28.6752 178.276 6.68164 148.099 6.68164 148.099L26.448 136.121L30.7168 176.326Z" fill="#FFC6B6"/>
<path d="M30.7166 189.883L6.68143 176.419L3.99023 189.883H30.7166Z" fill="#0A5265"/>
<path d="M100.409 257.386L105.142 278L118.134 271.128L100.409 257.386Z" fill="#FF5757"/>
</g>
<defs>
<clipPath id="clip0_2_1482">
<rect width="348" height="278" fill="white" transform="translate(0 -0.000488281)"/>
</clipPath>
</defs>
</svg>
