<svg width="40" height="41" viewBox="0 0 40 41" fill="none" xmlns="http://www.w3.org/2000/svg">
<path d="M25.4422 2.92249H14.5571C7.86465 2.92249 2.4209 8.36623 2.4209 15.0575V25.9437C2.4209 32.635 7.86465 38.0787 14.5571 38.0787H25.4422C32.1334 38.0787 37.5772 32.635 37.5772 25.9437V15.0575C37.5784 8.36498 32.1334 2.92249 25.4422 2.92249Z" fill="#EFEFEF"/>
<path d="M19.9995 10.6037C14.5432 10.6037 10.1045 15.0437 10.1045 20.4999C10.1045 25.9562 14.5432 30.3962 19.9995 30.3962C25.4557 30.3962 29.8945 25.9562 29.8945 20.4999C29.8945 15.0437 25.4557 10.6037 19.9995 10.6037Z" fill="#BB002D"/>
<path opacity="0.17" d="M21.9246 30.2125C21.2996 30.3375 20.6621 30.4 19.9996 30.4C14.5371 30.4 10.0996 25.9625 10.0996 20.5C10.0996 15.0375 14.5371 10.6 19.9996 10.6C20.7246 10.6 21.4371 10.675 22.1246 10.8375C17.4109 11.5625 13.7996 15.6375 13.7996 20.55C13.7996 25.3875 17.3121 29.4125 21.9246 30.2125Z" fill="white"/>
<path opacity="0.08" d="M37.5746 15.0625V25.9375C37.5746 32.6375 32.1371 38.075 25.4371 38.075H14.5621C13.1746 38.075 11.8359 37.8375 10.5996 37.4125L21.2246 37.125C32.8996 36.8125 34.4984 27.3625 34.4984 27.3625L34.4484 14.075C34.4484 14.075 33.5746 5.92499 23.5871 2.92499H25.4359C32.1371 2.92499 37.5746 8.36249 37.5746 15.0625Z" fill="#160204"/>
</svg>
