<svg width="49" height="48" viewBox="0 0 49 48" fill="none" xmlns="http://www.w3.org/2000/svg">
<g clip-path="url(#clip0_2_2146)">
<path d="M47.0732 21.3336C47.0788 21.3272 47.0804 21.3184 47.086 21.3112C49.1332 19.0121 48.9336 15.4898 46.6396 13.4368L46.6332 13.428L46.6252 13.4216C46.8045 13.1629 46.9628 12.8903 47.0988 12.6064C47.1689 12.4716 47.2308 12.3326 47.2844 12.1904C47.5494 11.4901 47.6899 10.7488 47.6996 10C47.6961 6.68778 45.0119 4.00355 41.6996 4.00002C41.5556 4.00002 41.4028 4.00882 41.25 4.01762C41.11 4.02802 40.9788 4.04562 40.8596 4.06322C40.5286 4.10675 40.2021 4.17902 39.8836 4.27922L39.8732 4.26642C39.8732 4.26642 39.8652 4.26162 39.862 4.25762C38.032 2.20691 34.978 1.80161 32.6764 3.30402C32.6532 3.31682 32.6276 3.31842 32.6052 3.33362C32.5828 3.34882 32.5524 3.37522 32.5252 3.39442C32.518 3.39922 32.51 3.40242 32.5036 3.40722C32.2327 3.21577 31.9442 3.05049 31.642 2.91362C30.1769 2.23884 28.4921 2.22856 27.0189 2.88541C25.5457 3.54226 24.4272 4.80244 23.95 6.34322C21.3596 3.78696 17.8574 2.36825 14.2182 2.40098C10.579 2.43371 7.10284 3.91518 4.55881 6.51762C-0.847729 12.0188 -0.847729 20.838 4.55881 26.3392L23.2588 45.2544C23.5576 45.5481 23.9879 45.6647 24.394 45.5621C24.8002 45.4594 25.1234 45.1524 25.2468 44.752C25.2548 44.7576 25.2612 44.7648 25.2692 44.7712C26.4761 45.7 28.1061 45.8616 29.4719 45.1881C30.8378 44.5145 31.7017 43.1229 31.6996 41.6C34.7908 41.5961 37.2956 39.0912 37.2996 36C40.3908 35.9961 42.8956 33.4912 42.8996 30.4V30.3432C42.918 30.3432 42.9364 30.3352 42.9548 30.3328C42.9732 30.3304 42.9964 30.3328 43.0188 30.3272C43.0412 30.3216 43.0452 30.3152 43.0604 30.312C45.7393 29.8435 47.6952 27.5195 47.6996 24.8C47.6994 24.6178 47.6901 24.4357 47.6716 24.2544C47.6139 23.6653 47.4638 23.0889 47.2268 22.5464C47.0874 22.2418 46.9284 21.9465 46.7508 21.6624C46.8356 21.5824 46.9108 21.4952 46.9908 21.4104C47.0172 21.3832 47.0484 21.36 47.0732 21.3336ZM23.6996 43.4248L5.69961 25.2144C0.90609 20.3375 0.90609 12.5185 5.69961 7.64162C7.97582 5.31251 11.0949 3.99949 14.3516 3.99949C17.6083 3.99949 20.7274 5.31251 23.0036 7.64162L23.7012 8.34882V43.4248H23.6996ZM45.7652 23.2C45.9323 23.5864 46.0383 23.9963 46.0796 24.4152V24.4256C46.0925 24.55 46.0992 24.675 46.0996 24.8C46.095 25.866 45.6669 26.8864 44.9096 27.6366C44.1523 28.3868 43.128 28.8053 42.062 28.8C40.4424 28.7896 38.9916 27.796 38.3964 26.2896C39.4731 26.0581 40.4367 25.4618 41.1244 24.6016C41.4006 24.2566 41.3447 23.753 40.9996 23.4768C40.6545 23.2007 40.151 23.2566 39.8748 23.6016C38.7709 24.9811 36.758 25.2049 35.378 24.1016C35.0327 23.8255 34.529 23.8815 34.2528 24.2268C33.9767 24.5721 34.0327 25.0759 34.378 25.352C35.0548 25.891 35.8658 26.2353 36.7236 26.348C37.3214 28.4669 39.114 30.033 41.294 30.3408C41.294 30.3624 41.2996 30.3816 41.2996 30.4032C41.297 32.6113 39.5077 34.4006 37.2996 34.4032C37.2092 34.4032 37.1396 34.3864 37.0516 34.3816C36.5709 32.8164 35.4359 31.5362 33.9396 30.8712C34.5631 30.0439 34.9001 29.036 34.8996 28C34.8996 27.5582 34.5414 27.2 34.0996 27.2C33.6578 27.2 33.2996 27.5582 33.2996 28C33.2996 29.7673 31.8669 31.2 30.0996 31.2C29.6578 31.2 29.2996 31.5582 29.2996 32C29.2996 32.4419 29.6578 32.8 30.0996 32.8C30.9683 32.7995 31.8203 32.5616 32.5636 32.112C34.5551 32.5492 35.8968 34.4173 35.6748 36.4441C35.4528 38.4709 33.7385 40.0044 31.6996 40C31.4683 39.9971 31.2377 39.9752 31.01 39.9344C30.4672 39.8417 29.9495 39.6371 29.49 39.3336C29.122 39.0891 28.6254 39.1892 28.3808 39.5572C28.1363 39.9253 28.2364 40.4219 28.6044 40.6664C29.061 40.9704 29.56 41.2052 30.0852 41.3632C30.0924 41.4432 30.1012 41.5184 30.1012 41.6032C30.1034 42.5187 29.5834 43.3552 28.7616 43.7584C27.9398 44.1617 26.9599 44.0611 26.2372 43.4992C25.6402 43.0515 25.292 42.3462 25.2996 41.6V8.00002C25.299 6.63485 25.9946 5.36362 27.1447 4.62817C28.2949 3.89273 29.7407 3.79465 30.9796 4.36802C31.0914 4.42275 31.2003 4.48309 31.306 4.54882C30.6711 5.35077 30.2692 6.31202 30.1444 7.32722C29.5768 7.45034 29.0554 7.73125 28.6404 8.13762C28.4324 8.33848 28.349 8.63593 28.4223 8.91563C28.4955 9.19533 28.7139 9.41377 28.9936 9.48698C29.2733 9.56019 29.5708 9.47679 29.7716 9.26883C30.4045 8.66417 31.4011 8.66417 32.034 9.26883C32.2349 9.47679 32.5323 9.56019 32.812 9.48698C33.0917 9.41377 33.3102 9.19533 33.3834 8.91563C33.4566 8.63593 33.3732 8.33848 33.1652 8.13762C32.7751 7.75669 32.2904 7.48662 31.7612 7.35522C31.907 6.45804 32.3553 5.63771 33.0316 5.03042L33.0404 5.02482C33.7688 4.36479 34.7167 3.99948 35.6996 4.00002C37.906 4.00661 39.693 5.79362 39.6996 8.00002C39.6996 8.44185 40.0578 8.80002 40.4996 8.80002C40.9414 8.80002 41.2996 8.44185 41.2996 8.00002C41.2984 7.20747 41.1285 6.42424 40.8012 5.70242C40.894 5.68402 40.9852 5.66002 41.0804 5.64802C41.1756 5.63602 41.266 5.62002 41.3556 5.61442C41.4684 5.60722 41.5868 5.60002 41.6996 5.60002C44.1284 5.60311 46.0965 7.57125 46.0996 10C46.0906 10.5649 45.9823 11.1238 45.7796 11.6512C45.7436 11.7409 45.7028 11.8285 45.6572 11.9136C45.551 12.1314 45.4263 12.3396 45.2844 12.536C43.6953 11.78 41.8412 11.826 40.2916 12.66C39.6415 12.2298 38.8792 12.0003 38.0996 12C37.6578 12 37.2996 12.3582 37.2996 12.8C37.2996 13.2419 37.6578 13.6 38.0996 13.6C39.4251 13.6 40.4996 14.6745 40.4996 16C40.4996 16.4419 40.8578 16.8 41.2996 16.8C41.7414 16.8 42.0996 16.4419 42.0996 16C42.0974 15.2494 41.8822 14.5147 41.4788 13.8816C42.8527 13.3747 44.3929 13.6421 45.5156 14.5824C46.3401 15.2917 46.8383 16.3077 46.8942 17.3939C46.9502 18.4801 46.5589 19.5418 45.8116 20.332C45.7016 20.4486 45.5849 20.5587 45.462 20.6616C45.4052 20.7088 45.346 20.7544 45.2868 20.7992C44.7809 21.1804 44.1916 21.4359 43.5676 21.5448C43.1578 21.6141 42.8693 21.9857 42.9037 22.3999C42.9382 22.8141 43.284 23.1329 43.6996 23.1336C43.7441 23.1338 43.7886 23.1301 43.8324 23.1224C44.3849 23.025 44.9195 22.8445 45.418 22.5872C45.5676 22.8368 45.722 23.1096 45.7652 23.2Z" fill="black"/>
<path d="M33.2992 15.2001C30.2081 15.204 27.7032 17.7089 27.6992 20.8001C27.6992 21.2419 28.0574 21.6001 28.4992 21.6001C28.941 21.6001 29.2992 21.2419 29.2992 20.8001C29.3019 18.592 31.0912 16.8027 33.2992 16.8001C33.741 16.8001 34.0992 16.4419 34.0992 16.0001C34.0992 15.5582 33.741 15.2001 33.2992 15.2001Z" fill="black"/>
<path d="M14.3495 5.59998C11.5176 5.59632 8.80481 6.73943 6.82953 8.76878C4.9263 10.695 3.81177 13.263 3.70473 15.9688C3.6963 16.1811 3.7727 16.3881 3.91708 16.5441C4.06147 16.7 4.26196 16.7921 4.47433 16.8H4.50873C4.93776 16.8004 5.29071 16.4622 5.30873 16.0336C5.39996 13.7255 6.35072 11.5349 7.97433 9.89198C9.64861 8.17046 11.9481 7.19947 14.3495 7.19998C14.7914 7.19998 15.1495 6.84181 15.1495 6.39998C15.1495 5.95816 14.7914 5.59998 14.3495 5.59998Z" fill="black"/>
<path d="M5.65206 18.9832C5.58227 18.6995 5.36334 18.4764 5.08099 18.4012C4.79863 18.3261 4.49776 18.4108 4.29616 18.6223C4.09455 18.8338 4.02428 19.1384 4.11286 19.4168C4.19499 19.7085 4.28939 19.9968 4.39606 20.2816C4.51334 20.5935 4.81166 20.8 5.14486 20.8C5.24094 20.7997 5.33623 20.7826 5.42646 20.7496C5.62524 20.6749 5.78619 20.5243 5.87382 20.3308C5.96145 20.1374 5.96859 19.9171 5.89366 19.7184C5.80246 19.4768 5.72246 19.2304 5.65206 18.9832Z" fill="black"/>
</g>
<defs>
<clipPath id="clip0_2_2146">
<rect width="48" height="48" fill="white" transform="translate(0.5)"/>
</clipPath>
</defs>
</svg>
