<svg width="49" height="48" viewBox="0 0 49 48" fill="none" xmlns="http://www.w3.org/2000/svg">
<g clip-path="url(#clip0_2_2155)">
<path d="M43.0455 32.7273C41.678 32.7273 40.4415 33.2506 39.4831 34.0852L32.0097 28.3702C32.7637 27.0799 33.2273 25.5992 33.2273 24.0001C33.2273 22.4637 32.7939 21.0402 32.0939 19.7849L37.2172 16.0272C38.1856 16.9048 39.457 17.4546 40.8637 17.4546C43.8711 17.4546 46.3182 15.0075 46.3182 12.0001C46.3182 8.99266 43.8711 6.54548 40.8637 6.54548C37.8563 6.54548 35.4092 8.99256 35.4092 12C35.4092 12.8129 35.6 13.5778 35.9202 14.2715L30.8184 18.0136C29.2267 16.3345 26.9907 15.2728 24.5001 15.2728C23.8048 15.2728 23.1371 15.3755 22.4884 15.5298L21.232 12.1782C23.1764 11.0421 24.5001 8.95554 24.5001 6.54558C24.5001 2.93617 21.564 0.00012207 17.9546 0.00012207C14.3452 0.00012207 11.4091 2.93617 11.4091 6.54558C11.4091 10.155 14.3452 13.091 17.9546 13.091C18.38 13.091 18.7939 13.0434 19.197 12.9655L20.4526 16.315C18.137 17.5404 16.4288 19.7476 15.9342 22.4034L11.3305 22.1332C10.9496 19.4952 8.69635 17.4546 5.95452 17.4546C2.94708 17.4546 0.5 19.9017 0.5 22.9091C0.5 25.9166 2.94708 28.3636 5.95452 28.3636C8.47441 28.3636 10.5802 26.6369 11.2035 24.3107L15.8316 24.5823C15.9815 26.8032 16.9351 28.8006 18.4425 30.2595L14.3913 35.6614C13.4928 35.1967 12.4887 34.909 11.4091 34.909C7.79972 34.909 4.86367 37.845 4.86367 41.4545C4.86367 45.0639 7.79972 47.9999 11.4091 47.9999C15.0185 47.9999 17.9546 45.0639 17.9546 41.4545C17.9546 39.7109 17.259 38.134 16.144 36.9597L20.2018 31.5488C21.4762 32.2775 22.9301 32.7272 24.5001 32.7272C26.9285 32.7272 29.1242 31.7264 30.7078 30.1202L38.1542 35.8144C37.8045 36.5334 37.591 37.33 37.591 38.1817C37.591 41.1892 40.0381 43.6362 43.0455 43.6362C46.0529 43.6362 48.5 41.1892 48.5 38.1817C48.5 35.1743 46.0529 32.7273 43.0455 32.7273ZM40.8637 8.72726C42.6684 8.72726 44.1364 10.1953 44.1364 12C44.1364 13.8047 42.6684 15.2727 40.8637 15.2727C39.059 15.2727 37.591 13.8047 37.591 12C37.591 10.1953 39.059 8.72726 40.8637 8.72726ZM5.95452 26.1819C4.14981 26.1819 2.68179 24.7138 2.68179 22.9091C2.68179 21.1044 4.14981 19.6364 5.95452 19.6364C7.75922 19.6364 9.22725 21.1044 9.22725 22.9091C9.22725 24.7138 7.75922 26.1819 5.95452 26.1819ZM11.4091 45.8182C9.00245 45.8182 7.04546 43.8612 7.04546 41.4546C7.04546 39.0479 9.00245 37.0909 11.4091 37.0909C13.8158 37.0909 15.7728 39.0479 15.7728 41.4546C15.7728 43.8612 13.8157 45.8182 11.4091 45.8182ZM17.9546 10.9092C15.5479 10.9092 13.5909 8.95206 13.5909 6.54548C13.5909 4.1389 15.5479 2.18181 17.9546 2.18181C20.3613 2.18181 22.3182 4.1389 22.3182 6.54548C22.3182 8.95206 20.3612 10.9092 17.9546 10.9092ZM24.5001 30.5455C20.8906 30.5455 17.9546 27.6095 17.9546 24.0001C17.9546 20.3907 20.8906 17.4546 24.5001 17.4546C28.1095 17.4546 31.0455 20.3907 31.0455 24.0001C31.0455 27.6095 28.1094 30.5455 24.5001 30.5455ZM43.0455 41.4546C41.2408 41.4546 39.7728 39.9865 39.7728 38.1818C39.7728 36.3771 41.2408 34.9091 43.0455 34.9091C44.8502 34.9091 46.3182 36.3771 46.3182 38.1818C46.3182 39.9865 44.8502 41.4546 43.0455 41.4546Z" fill="black"/>
</g>
<defs>
<clipPath id="clip0_2_2155">
<rect width="48" height="48" fill="white" transform="translate(0.5)"/>
</clipPath>
</defs>
</svg>
