<svg width="49" height="48" viewBox="0 0 49 48" fill="none" xmlns="http://www.w3.org/2000/svg">
<g clip-path="url(#clip0_2_2134)">
<path d="M48.0997 37.9446L27.0392 1.46686C26.5093 0.548895 25.56 0.000854492 24.5 0.000854492C23.44 0.000854492 22.4907 0.548895 21.9608 1.46686L12.9559 17.0636C12.697 17.512 12.8506 18.0853 13.299 18.3442C13.7475 18.603 14.3209 18.4494 14.5796 18.0011L16.0957 15.3751H32.9042L39.6157 26.9997H33.6424C32.5744 26.1697 31.2955 25.5815 29.8435 25.2967C28.6796 25.0684 27.5386 25.0675 26.4579 25.286C26.6482 24.0439 26.4215 22.7509 25.7767 21.6343C24.7812 19.9098 22.9237 18.8375 20.9292 18.8354C20.9289 18.8354 20.9286 18.8354 20.9283 18.8354C20.593 18.8354 20.2833 19.0145 20.116 19.305C19.1205 21.0333 19.1206 23.178 20.1161 24.9025C20.1642 24.9859 20.215 25.0674 20.2672 25.1477C19.9001 25.1745 19.5296 25.2236 19.1567 25.2968C17.7046 25.5816 16.4257 26.1698 15.3578 26.9998H9.38437L10.3609 25.3083C10.6199 24.8599 10.4662 24.2866 10.0178 24.0277C9.56933 23.7689 8.99598 23.9225 8.73724 24.3708L0.900343 37.9446C0.366552 38.8691 0.366552 39.9731 0.900343 40.8976C1.43413 41.8222 2.39025 42.3741 3.45774 42.3741H13.7839C14.7531 44.1059 16.0129 45.5883 17.4318 46.5884C19.1187 47.7773 20.9191 48.2275 22.6385 47.8902C23.2817 47.7641 23.9056 47.5285 24.5 47.1878C25.0944 47.5285 25.7183 47.7641 26.3615 47.8902C26.7322 47.9629 27.1065 47.9991 27.4828 47.9991C28.8519 47.9991 30.245 47.521 31.5682 46.5884C32.9871 45.5883 34.2469 44.1059 35.2161 42.3741H45.5423C46.6098 42.3741 47.5658 41.8221 48.0996 40.8977C48.6334 39.9731 48.6334 38.8691 48.0997 37.9446ZM17.1782 13.5003L23.5845 2.40432C23.8599 1.92724 24.3165 1.87578 24.5 1.87578C24.6835 1.87578 25.14 1.92724 25.4155 2.40432L31.8218 13.5003H17.1782ZM21.495 20.7546C22.5997 20.9266 23.5864 21.5905 24.153 22.5717C24.7196 23.5531 24.8011 24.7394 24.3977 25.7822C23.293 25.6102 22.3062 24.9462 21.7396 23.9651C21.1732 22.9838 21.0917 21.7973 21.495 20.7546ZM3.45774 40.4992C2.89592 40.4992 2.61758 40.1222 2.52403 39.9602C2.43047 39.7981 2.24316 39.3686 2.52403 38.8821L8.30179 28.8747H13.5765C12.0904 30.9915 11.4535 33.8382 11.9281 36.9932C12.108 38.1898 12.438 39.3749 12.8885 40.4992H3.45774ZM30.4881 45.0558C29.6106 45.6744 28.2446 46.349 26.7224 46.0504C26.1413 45.9364 25.5751 45.6875 25.0395 45.3106C24.8776 45.1968 24.6889 45.1398 24.5 45.1398C24.3111 45.1398 24.1224 45.1967 23.9605 45.3106C23.4249 45.6875 22.8587 45.9364 22.2776 46.0504C20.7554 46.349 19.3894 45.6743 18.5119 45.0558C16.1504 43.3915 14.2939 40.1173 13.7821 36.7143C13.0436 31.8032 15.3484 27.9543 19.5175 27.1366C21.1459 26.8172 22.705 27.0574 24.0263 27.8314C24.3189 28.0027 24.6812 28.0027 24.9738 27.8314C26.2951 27.0575 27.8541 26.8172 29.4826 27.1366C33.6517 27.9543 35.9565 31.8032 35.218 36.7143C34.7061 40.1172 32.8496 43.3915 30.4881 45.0558ZM46.4759 39.9602C46.3823 40.1222 46.104 40.4992 45.5423 40.4992H36.1115C36.562 39.3748 36.892 38.1897 37.0719 36.9932C37.5464 33.8382 36.9095 30.9915 35.4235 28.8747H40.6982L46.476 38.8821C46.7568 39.3686 46.5694 39.7981 46.4759 39.9602Z" fill="white"/>
<path d="M11.6582 22.1251C11.9048 22.1251 12.1457 22.0248 12.321 21.8504C12.4953 21.6761 12.5957 21.4342 12.5957 21.1876C12.5957 20.9411 12.4954 20.6992 12.321 20.5248C12.1466 20.3504 11.9048 20.2501 11.6582 20.2501C11.4107 20.2501 11.1698 20.3504 10.9954 20.5248C10.8201 20.6992 10.7207 20.9411 10.7207 21.1876C10.7207 21.4342 10.8201 21.6761 10.9954 21.8504C11.1698 22.0247 11.4107 22.1251 11.6582 22.1251Z" fill="white"/>
</g>
<defs>
<clipPath id="clip0_2_2134">
<rect width="48" height="48" fill="white" transform="translate(0.5)"/>
</clipPath>
</defs>
</svg>
