<svg width="49" height="48" viewBox="0 0 49 48" fill="none" xmlns="http://www.w3.org/2000/svg">
<path d="M15.7029 36.5602V38.4H14.1029C12.7776 38.4 11.7029 39.4746 11.7029 40.8C11.7029 42.1254 12.7776 43.2 14.1029 43.2H15.7029V45.6C15.7029 46.9254 16.7776 48 18.1029 48C19.4283 48 20.5029 46.9254 20.5029 45.6V43.2H22.1029C23.4283 43.2 24.5029 42.1254 24.5029 40.8C24.5029 39.4746 23.4283 38.4 22.1029 38.4H20.5029V36.5602C24.8162 35.6695 28.2986 32.4949 29.5838 28.2824C33.2104 27.1832 36.1049 24.4359 37.3912 20.8711C38.6772 17.3066 38.2041 13.3441 36.1151 10.1824L38.1029 8.19453V8.8C38.1029 10.1254 39.1776 11.2 40.5029 11.2C41.8283 11.2 42.9029 10.1254 42.9029 8.8V2.4C42.9029 1.07461 41.8283 0 40.5029 0H34.1029C32.7776 0 31.7029 1.07461 31.7029 2.4C31.7029 3.72539 32.7776 4.8 34.1029 4.8H34.7096L32.7197 6.78867C29.5572 4.70195 25.5951 4.23008 22.0307 5.51562C18.4662 6.80078 15.7174 9.69258 14.6143 13.3176C9.35607 14.9121 5.85255 19.8742 6.10998 25.3625C6.36701 30.8512 10.319 35.4641 15.7029 36.5602ZM22.1029 40C22.5447 40 22.9029 40.3582 22.9029 40.8C22.9029 41.2418 22.5447 41.6 22.1029 41.6H18.9029V45.6C18.9029 46.0418 18.5447 46.4 18.1029 46.4C17.6611 46.4 17.3029 46.0418 17.3029 45.6V41.6H14.1029C13.6611 41.6 13.3029 41.2418 13.3029 40.8C13.3029 40.3582 13.6611 40 14.1029 40H17.3029V36.8H18.9029V40H22.1029ZM20.0229 12.9602C21.5975 10.4547 24.5451 9.16914 27.4522 9.71992C30.3592 10.2707 32.6326 12.5457 33.1811 15.4531C33.7299 18.3605 32.442 21.3074 29.9358 22.8801C29.0963 17.7918 25.1104 13.8031 20.0229 12.9602ZM37.2061 4.56563C37.435 4.33672 37.5033 3.99258 37.3795 3.69375C37.2557 3.39492 36.9643 3.2 36.6404 3.2H34.1029C33.6611 3.2 33.3029 2.8418 33.3029 2.4C33.3029 1.9582 33.6611 1.6 34.1029 1.6H40.5029C40.9447 1.6 41.3029 1.9582 41.3029 2.4V8.8C41.3029 9.2418 40.9447 9.6 40.5029 9.6C40.0611 9.6 39.7029 9.2418 39.7029 8.8V6.26328C39.7029 5.93984 39.508 5.64805 39.2092 5.52422C38.9104 5.40039 38.5662 5.46875 38.3373 5.69766L35.1944 8.83984L34.0623 7.70898L37.2061 4.56563ZM18.7494 9.4457C21.7291 6.44727 26.2272 5.55078 30.1287 7.17734C34.0303 8.8043 36.5592 12.6309 36.526 16.8578C36.4932 21.0848 33.9049 24.8711 29.9783 26.4367C30.0572 25.8945 30.0986 25.3477 30.1029 24.8C30.1029 24.7457 30.0959 24.693 30.0951 24.6398C33.9983 22.652 35.8451 18.0961 34.4279 13.9516C33.0108 9.80703 28.7615 7.33555 24.4584 8.15312C20.1553 8.97109 17.1084 12.8289 17.3104 17.2047C17.5127 21.5801 20.9022 25.1406 25.2623 25.5586C25.2049 26.091 25.0873 26.6152 24.9119 27.1215C20.9494 26.6668 17.5967 23.9844 16.2838 20.218C14.9713 16.4516 15.9303 12.2664 18.7518 9.44727L18.7494 9.4457ZM18.9592 17.6559C22.2526 18.0547 24.8483 20.6504 25.2471 23.9441C21.9533 23.5453 19.3576 20.9496 18.9592 17.6559ZM17.6182 25.2848C19.3983 27.0656 21.6932 28.241 24.1783 28.6449C22.5975 31.1422 19.6502 32.4191 16.7471 31.8645C13.8436 31.3094 11.5752 29.0355 11.0268 26.1313C10.4783 23.2266 11.7619 20.2824 14.2631 18.707C14.6557 21.2 15.8307 23.5035 17.6182 25.2848ZM14.2287 15.1496C14.1494 15.6961 14.1072 16.2477 14.1029 16.8C14.1029 16.8535 14.1104 16.9062 14.1111 16.9602C10.2076 18.9473 8.35998 23.5027 9.77638 27.6477C11.1928 31.7926 15.4416 34.2648 19.7451 33.4477C24.0483 32.6305 27.0955 28.773 26.8944 24.3977C26.6928 20.0219 23.3041 16.4605 18.944 16.0426C19.0014 15.5102 19.119 14.9859 19.2944 14.4801C24.4908 15.0926 28.4182 19.4789 28.4549 24.7117C28.4916 29.9441 24.6268 34.3855 19.4389 35.0711C14.2514 35.757 9.36505 32.4727 8.04084 27.4102C6.71701 22.3477 9.36974 17.0914 14.2287 15.1496Z" fill="black"/>
</svg>
