<svg width="40" height="41" viewBox="0 0 40 41" fill="none" xmlns="http://www.w3.org/2000/svg">
<path d="M25.4422 2.92247H14.5571C7.86465 2.92247 2.4209 8.36622 2.4209 15.0575V25.9437C2.4209 32.635 7.86465 38.0787 14.5571 38.0787H25.4422C32.1334 38.0787 37.5772 32.635 37.5772 25.9437V15.0575C37.5784 8.36497 32.1334 2.92247 25.4422 2.92247Z" fill="#C30B1E"/>
<path d="M37.5748 15.0625V25.9375C37.5748 26.6375 37.5123 27.325 37.3998 28H2.5998C2.4873 27.325 2.4248 26.6375 2.4248 25.9375V15.0625C2.4248 14.3625 2.4873 13.675 2.5998 13H37.3998C37.5123 13.675 37.5748 14.3625 37.5748 15.0625Z" fill="#F8BF01"/>
<path d="M15.645 16.8675C15.645 16.35 15.225 15.93 14.7075 15.93H8.75C8.2325 15.93 7.8125 16.35 7.8125 16.8675V21.8175C7.8125 21.8175 7.98875 25.0625 11.7638 25.0625C15.4875 24.9525 15.6438 21.71 15.6438 21.71V16.8675H15.645Z" fill="#C30B1E"/>
<path opacity="0.13" d="M15.6494 16.8625V21.7125C15.6494 21.7125 15.4869 24.95 11.7632 25.0625C8.62566 25.0625 7.97566 22.8125 7.83691 22.0625C9.32441 22.7875 12.9507 24.2125 13.9007 21.3125V15.925H14.7119C15.2244 15.925 15.6494 16.35 15.6494 16.8625Z" fill="#160204"/>
<path opacity="0.13" d="M37.575 15.0625V25.9375C37.575 32.6375 32.1375 38.075 25.4375 38.075H14.5625C13.1362 38.075 11.775 37.825 10.5 37.375L21.4625 36.4375C32.7887 34.875 33.225 27.225 33.225 27.225L33.175 13.9375C33.175 13.9375 32.9375 6.12497 23.525 2.92497H25.4362C32.1375 2.92497 37.575 8.36247 37.575 15.0625Z" fill="#160204"/>
<path opacity="0.2" d="M2.4248 25.9375V15.0625C2.4248 8.36247 7.8623 2.92497 14.5623 2.92497H18.7736C15.4736 3.58747 6.56105 6.14997 5.21105 14.35L5.14855 27.725C5.14855 27.725 5.47355 33.175 7.8848 36.075C4.5998 33.9 2.4248 30.175 2.4248 25.9375Z" fill="white"/>
</svg>
