<svg width="40" height="40" viewBox="0 0 40 40" fill="none" xmlns="http://www.w3.org/2000/svg">
<path d="M25.7479 1.43604H14.2524C7.18523 1.43604 1.43555 7.18502 1.43555 14.2515V25.7483C1.43555 32.8148 7.18523 38.5638 14.2524 38.5638H25.7479C32.8144 38.5638 38.5634 32.8148 38.5634 25.7483V14.2515C38.5634 7.18502 32.8144 1.43604 25.7479 1.43604Z" fill="#DC0917"/>
<path opacity="0.22" d="M1.43652 25.7406V14.2556C1.43652 7.17994 7.1791 1.43744 14.2546 1.43744H18.7035C15.2182 2.13744 5.80613 4.84338 4.38027 13.5033L4.31449 27.628C4.31449 27.628 4.65746 33.3842 7.20551 36.4465C3.73379 34.1499 1.43652 30.216 1.43652 25.7406Z" fill="white"/>
<path opacity="0.13" d="M38.5604 14.2573V25.7424C38.5604 32.818 32.8177 38.5605 25.7423 38.5605H14.2571C12.752 38.5605 11.3133 38.2962 9.9668 37.8212L21.5441 36.8312C33.5042 35.181 33.9664 27.1019 33.9664 27.1019L33.9135 13.0693C33.9135 13.0693 33.6628 4.81874 23.7221 1.43921H25.7422C32.8177 1.43921 38.5604 7.18171 38.5604 14.2573Z" fill="#160204"/>
<path d="M23.2676 25.6428C21.8159 26.9531 20.0341 27.6332 18.1273 27.6332C13.9185 27.6332 10.4941 24.2089 10.4941 20C10.4941 15.791 13.9185 12.3668 18.1273 12.3668C20.0341 12.3668 21.8598 13.0738 23.268 14.3574C23.4757 14.5399 23.305 14.7472 23.305 14.7472C23.1535 14.9312 22.9456 14.8356 22.9456 14.8356C22.1708 14.4639 21.3389 14.2754 20.4727 14.2754C17.3161 14.2754 14.748 16.8435 14.748 20C14.748 23.1566 17.3161 25.7246 20.4727 25.7246C21.3387 25.7246 22.1706 25.5362 22.9452 25.1646C22.9452 25.1646 23.1648 25.0641 23.3106 25.2615C23.3106 25.2615 23.477 25.4538 23.2676 25.6428Z" fill="#EFEFEF"/>
<path d="M25.6789 23.2784L27.0425 21.4521L29.1487 22.117C29.2611 22.1525 29.3836 22.112 29.4524 22.0166C29.5215 21.921 29.5215 21.7923 29.4525 21.6966L28.1516 19.8936L29.4286 18.0103C29.4944 17.9134 29.4909 17.7853 29.4203 17.692C29.3495 17.5988 29.2271 17.5609 29.116 17.598L27.0295 18.2944L25.6807 16.5955C25.6087 16.5045 25.4871 16.4692 25.3775 16.5071C25.2679 16.5451 25.1941 16.6481 25.1936 16.7642L25.1858 18.9095L23.0765 19.6135C22.9655 19.6505 22.8906 19.7538 22.8897 19.8708C22.8889 19.9875 22.9625 20.0919 23.0728 20.1305L25.161 20.8594L25.1868 23.1183C25.1882 23.2353 25.2639 23.3386 25.3754 23.3748C25.3754 23.3747 25.5504 23.4506 25.6789 23.2784Z" fill="#EFEFEF"/>
</svg>
