<svg width="49" height="48" viewBox="0 0 49 48" fill="none" xmlns="http://www.w3.org/2000/svg">
<g clip-path="url(#clip0_2_2141)">
<path d="M4.24156 17.2053C4.13103 14.0146 5.44634 11.0254 8.15094 8.32093C10.4473 6.02461 13.7088 4.70752 17.0987 4.70752H17.1091C20.6381 4.70752 24.0185 6.2273 26.3675 8.82352C28.7163 6.22749 32.0972 4.70752 35.6266 4.70752H35.6361C39.0257 4.70724 42.2874 6.02433 44.5841 8.32093C47.3236 11.0603 48.6372 14.0909 48.4886 17.3282C48.3224 20.9455 46.3653 24.8018 42.5054 29.1175C39.2551 32.7516 35.2043 36.1193 31.6303 39.0905C29.9219 40.5108 28.3082 41.8524 26.9998 43.0473C26.8208 43.2108 26.5942 43.2926 26.3676 43.2926C26.141 43.2926 25.9144 43.2108 25.7353 43.0473C24.427 41.8525 22.8133 40.5109 21.1049 39.0906C16.2697 35.0708 10.2521 30.0679 6.90369 24.7979C6.626 24.3608 6.75519 23.7815 7.19225 23.5038C7.62931 23.2262 8.20859 23.3554 8.48628 23.7924C11.677 28.8142 17.5692 33.7128 22.3036 37.6488C23.7664 38.865 25.1604 40.0238 26.3676 41.0943C27.5749 40.0238 28.9689 38.8649 30.4317 37.6487C33.9557 34.719 37.9499 31.3983 41.1079 27.8675C44.6684 23.8865 46.47 20.4109 46.6156 17.2422C46.7409 14.5156 45.6427 12.031 43.2583 9.64674C41.3107 7.69918 38.5323 6.58224 35.6354 6.58243C35.6328 6.58243 35.6301 6.58243 35.6275 6.58243C32.2901 6.58243 29.1104 8.18058 27.1199 10.8586C26.943 11.0966 26.664 11.2368 26.3675 11.2368C26.071 11.2368 25.792 11.0966 25.6151 10.8586C23.6247 8.18077 20.4447 6.58252 17.1083 6.58252C17.1053 6.58252 17.1027 6.58233 17.0995 6.58252C14.2021 6.58252 11.4242 7.69936 9.47666 9.64683C7.12175 12.0016 6.02225 14.4528 6.11534 17.1405C6.13325 17.658 5.72834 18.0919 5.21084 18.1098C4.69597 18.1261 4.25956 17.7228 4.24156 17.2053ZM1.4375 21.6715H16.1327C16.5478 21.6715 16.9136 21.3985 17.0315 21.0005L18.8034 15.0251L21.8818 30.2526C21.9702 30.69 22.3544 31.0044 22.8007 31.0044C23.2469 31.0044 23.6312 30.69 23.7196 30.2526L25.4524 21.6811L39.2632 21.6749C39.781 21.6747 40.2005 21.2548 40.2003 20.737C40.2001 20.2194 39.7804 19.7999 39.2628 19.7999C39.2627 19.7999 39.2625 19.7999 39.2624 19.7999L24.6851 19.8064C24.2391 19.8066 23.855 20.121 23.7666 20.5582L22.8009 25.3355L19.8948 10.9606C19.8095 10.5385 19.4476 10.2288 19.0175 10.2097C18.5858 10.1895 18.1994 10.467 18.0771 10.8797L15.433 19.7965H1.4375C0.919719 19.7965 0.5 20.2162 0.5 20.734C0.5 21.2518 0.919719 21.6715 1.4375 21.6715Z" fill="black"/>
</g>
<defs>
<clipPath id="clip0_2_2141">
<rect width="48" height="48" fill="white" transform="translate(0.5)"/>
</clipPath>
</defs>
</svg>
