<svg width="692" height="326" viewBox="0 0 692 326" fill="none" xmlns="http://www.w3.org/2000/svg">
<g clip-path="url(#clip0_2_6836)">
<path d="M183.594 242.214H59.3691C55.5632 242.214 52.3662 239.168 52.3662 235.207V99.1706C52.3662 95.3621 55.4109 92.1631 59.3691 92.1631H183.594C187.4 92.1631 190.597 95.2098 190.597 99.1706V235.359C190.597 239.168 187.4 242.214 183.594 242.214Z" fill="#FFDEB3"/>
<path d="M170.958 221.954H72.0042C69.1117 221.954 66.8281 219.669 66.8281 216.774V117.756C66.8281 114.861 69.1117 112.576 72.0042 112.576H170.958C173.85 112.576 176.134 114.861 176.134 117.756V216.774C176.134 219.669 173.85 221.954 170.958 221.954Z" fill="#B54528"/>
<path d="M197.295 300.56H45.6676C40.0349 300.56 35.4678 295.99 35.4678 290.353V252.574C35.4678 246.937 40.0349 242.367 45.6676 242.367H197.295C202.928 242.367 207.495 246.937 207.495 252.574V290.353C207.495 295.99 202.928 300.56 197.295 300.56Z" fill="#FFD6A0"/>
<path d="M207.495 252.421H35.4678V264.151H207.495V252.421Z" fill="#FFDEB3"/>
<path d="M199.274 268.264H143.251V274.662H199.274V268.264Z" fill="#BFA178"/>
<path d="M139.597 268.264H126.2V274.662H139.597V268.264Z" fill="#BFA178"/>
<path d="M121.481 268.264H108.084V274.662H121.481V268.264Z" fill="#BFA178"/>
<path d="M101.234 274.51C103 274.51 104.431 273.078 104.431 271.311C104.431 269.544 103 268.112 101.234 268.112C99.4684 268.112 98.0371 269.544 98.0371 271.311C98.0371 273.078 99.4684 274.51 101.234 274.51Z" fill="#BFA178"/>
<path d="M172.937 235.055C174.703 235.055 176.134 233.623 176.134 231.856C176.134 230.089 174.703 228.657 172.937 228.657C171.172 228.657 169.74 230.089 169.74 231.856C169.74 233.623 171.172 235.055 172.937 235.055Z" fill="#BFA178"/>
<path d="M73.0701 255.315H40.9482V261.257H73.0701V255.315Z" fill="#BFA178"/>
<g opacity="0.2">
<path d="M151.015 132.989H147.666H144.317H134.574L113.26 154.316H104.887C103.67 154.316 102.604 155.23 102.604 156.601C102.604 157.82 103.517 158.886 104.887 158.886H108.846H109.302C110.064 158.886 110.52 159.496 110.52 160.105C110.52 160.867 109.911 161.324 109.302 161.324H106.258L91.1862 176.405L87.9893 186.307H116.61L112.195 200.17H117.219H126.201H127.418C128.636 200.17 129.702 199.256 129.702 197.885C129.702 196.666 128.789 195.752 127.571 195.752H127.418H126.962C126.201 195.752 125.744 195.143 125.744 194.533C125.744 193.924 126.353 193.314 126.962 193.314H128.484L130.768 186.307H138.836L142.338 175.339H134.269L143.86 145.329H147.666C148.884 145.329 149.949 144.414 149.949 143.043C149.949 141.825 149.036 140.758 147.666 140.758H145.23H144.469C143.708 140.758 143.251 140.149 143.251 139.54C143.251 138.93 143.86 138.321 144.469 138.321H145.991H151.015C152.537 138.321 153.755 137.102 153.755 135.579C153.603 134.208 152.537 132.989 151.015 132.989ZM126.809 155.535C125.439 159.191 124.526 161.933 123.917 163.761L120.263 175.186H104.279L122.547 156.601C124.83 154.164 127.114 151.727 128.941 149.289H129.245C128.941 149.746 128.18 151.879 126.809 155.535Z" fill="white"/>
<path d="M159.54 132.989H158.475C156.952 132.989 155.734 134.208 155.734 135.731C155.734 137.255 156.952 138.473 158.475 138.473H159.54C161.063 138.473 162.281 137.255 162.281 135.731C162.281 134.208 161.063 132.989 159.54 132.989Z" fill="white"/>
</g>
<path opacity="0.1" d="M111.585 117.908H81.5949H70.7861V128.724V158.734H81.5949V128.724H111.585V117.908Z" fill="white"/>
<path opacity="0.1" d="M171.262 175.187H160.453V216.013H171.262V175.187Z" fill="white"/>
<g opacity="0.5">
<path opacity="0.1" d="M176.134 114.709H66.8281V116.689H176.134V114.709Z" fill="white"/>
<path opacity="0.1" d="M176.134 118.67H66.8281V120.65H176.134V118.67Z" fill="white"/>
<path opacity="0.1" d="M176.134 122.783H66.8281V124.763H176.134V122.783Z" fill="white"/>
<path opacity="0.1" d="M176.134 126.896H66.8281V128.876H176.134V126.896Z" fill="white"/>
<path opacity="0.1" d="M176.134 131.009H66.8281V132.989H176.134V131.009Z" fill="white"/>
<path opacity="0.1" d="M176.134 134.97H66.8281V136.95H176.134V134.97Z" fill="white"/>
<path opacity="0.1" d="M176.134 139.083H66.8281V141.063H176.134V139.083Z" fill="white"/>
<path opacity="0.1" d="M176.134 143.196H66.8281V145.176H176.134V143.196Z" fill="white"/>
<path opacity="0.1" d="M176.134 147.309H66.8281V149.289H176.134V147.309Z" fill="white"/>
<path opacity="0.1" d="M176.134 151.27H66.8281V153.25H176.134V151.27Z" fill="white"/>
<path opacity="0.1" d="M176.134 155.383H66.8281V157.363H176.134V155.383Z" fill="white"/>
<path opacity="0.1" d="M176.134 159.496H66.8281V161.476H176.134V159.496Z" fill="white"/>
<path opacity="0.1" d="M176.134 163.609H66.8281V165.589H176.134V163.609Z" fill="white"/>
<path opacity="0.1" d="M176.134 167.57H66.8281V169.55H176.134V167.57Z" fill="white"/>
<path opacity="0.1" d="M176.134 171.683H66.8281V173.663H176.134V171.683Z" fill="white"/>
<path opacity="0.1" d="M176.134 175.796H66.8281V177.776H176.134V175.796Z" fill="white"/>
<path opacity="0.1" d="M176.134 179.909H66.8281V181.89H176.134V179.909Z" fill="white"/>
<path opacity="0.1" d="M176.134 183.87H66.8281V185.85H176.134V183.87Z" fill="white"/>
<path opacity="0.1" d="M176.134 187.983H66.8281V189.963H176.134V187.983Z" fill="white"/>
<path opacity="0.1" d="M176.134 192.096H66.8281V194.077H176.134V192.096Z" fill="white"/>
<path opacity="0.1" d="M176.134 196.209H66.8281V198.189H176.134V196.209Z" fill="white"/>
<path opacity="0.1" d="M176.134 200.17H66.8281V202.15H176.134V200.17Z" fill="white"/>
<path opacity="0.1" d="M176.134 204.283H66.8281V206.263H176.134V204.283Z" fill="white"/>
<path opacity="0.1" d="M176.134 208.396H66.8281V210.376H176.134V208.396Z" fill="white"/>
<path opacity="0.1" d="M176.134 212.509H66.8281V214.49H176.134V212.509Z" fill="white"/>
<path opacity="0.1" d="M176.134 216.622H66.8281V218.602H176.134V216.622Z" fill="white"/>
<path opacity="0.1" d="M176.134 220.583H66.8281V222.563H176.134V220.583Z" fill="white"/>
</g>
<path opacity="0.1" d="M94.6869 199.561C94.3824 199.104 93.6212 199.104 93.3167 199.408L88.4452 203.521L85.2482 197.733C85.096 197.58 84.9437 197.428 84.7915 197.276L78.2453 194.686C77.7886 194.533 77.1797 194.686 76.8752 195.295C76.723 195.752 76.8752 196.362 77.4842 196.666L83.7258 199.104L86.9228 204.892L83.7258 207.634C83.4214 207.939 83.2691 208.244 83.4214 208.548C83.5736 208.853 83.7259 209.158 84.1826 209.31L89.6631 210.986L80.2244 223.63C79.9199 224.087 79.9199 224.696 80.3767 225.001C80.5289 225.153 80.8334 225.153 80.9856 225.153C81.2901 225.153 81.5945 225.001 81.7468 224.696L91.9466 210.833C92.0988 210.529 92.2511 210.224 92.0988 209.919C91.9466 209.615 91.7944 209.31 91.4899 209.31L86.4661 207.787L94.6869 200.779C94.9913 200.627 95.1436 200.018 94.6869 199.561Z" fill="white"/>
<path d="M0.605469 48.2905L21.9185 56.0597L34.7064 60.7821L29.6826 74.4924L48.4076 89.269L27.2468 81.4999L14.3067 76.7774L19.3305 63.0672L0.605469 48.2905Z" fill="#747554"/>
<path d="M54.8012 36.1035L59.6727 51.9465L62.7175 61.5437L52.3654 64.7428L52.0609 82.1091L47.1894 66.2661L44.2969 56.6689L54.4967 53.6222L54.8012 36.1035Z" fill="#747554"/>
<path d="M600.873 242.215H476.648C472.842 242.215 469.646 239.168 469.646 235.207V99.171C469.646 95.3626 472.69 92.1636 476.648 92.1636H600.873C604.679 92.1636 607.876 95.2103 607.876 99.171V235.36C607.876 239.168 604.679 242.215 600.873 242.215Z" fill="#FFDEB3"/>
<path d="M588.237 221.954H489.283C486.391 221.954 484.107 219.669 484.107 216.775V117.756C484.107 114.862 486.391 112.577 489.283 112.577H588.237C591.129 112.577 593.413 114.862 593.413 117.756V216.775C593.413 219.669 591.129 221.954 588.237 221.954Z" fill="#B54528"/>
<path d="M614.574 300.56H462.947C457.314 300.56 452.747 295.99 452.747 290.353V252.574C452.747 246.937 457.314 242.367 462.947 242.367H614.574C620.207 242.367 624.774 246.937 624.774 252.574V290.353C624.774 295.99 620.207 300.56 614.574 300.56Z" fill="#FFD6A0"/>
<path d="M624.774 252.421H452.747V264.151H624.774V252.421Z" fill="#FFDEB3"/>
<path d="M616.553 268.265H560.53V274.663H616.553V268.265Z" fill="#BFA178"/>
<path d="M556.724 268.265H543.327V274.663H556.724V268.265Z" fill="#BFA178"/>
<path d="M538.76 268.265H525.363V274.663H538.76V268.265Z" fill="#BFA178"/>
<path d="M518.513 274.51C520.279 274.51 521.71 273.078 521.71 271.311C521.71 269.545 520.279 268.112 518.513 268.112C516.748 268.112 515.316 269.545 515.316 271.311C515.316 273.078 516.748 274.51 518.513 274.51Z" fill="#BFA178"/>
<path d="M590.216 235.055C591.982 235.055 593.413 233.623 593.413 231.856C593.413 230.089 591.982 228.657 590.216 228.657C588.451 228.657 587.02 230.089 587.02 231.856C587.02 233.623 588.451 235.055 590.216 235.055Z" fill="#BFA178"/>
<path d="M490.349 255.316H458.228V261.257H490.349V255.316Z" fill="#BFA178"/>
<g opacity="0.5">
<path opacity="0.1" d="M593.413 114.709H484.107V116.69H593.413V114.709Z" fill="white"/>
<path opacity="0.1" d="M593.413 118.67H484.107V120.651H593.413V118.67Z" fill="white"/>
<path opacity="0.1" d="M593.413 122.783H484.107V124.764H593.413V122.783Z" fill="white"/>
<path opacity="0.1" d="M593.413 126.896H484.107V128.877H593.413V126.896Z" fill="white"/>
<path opacity="0.1" d="M593.413 131.009H484.107V132.99H593.413V131.009Z" fill="white"/>
<path opacity="0.1" d="M593.413 134.97H484.107V136.951H593.413V134.97Z" fill="white"/>
<path opacity="0.1" d="M593.413 139.083H484.107V141.064H593.413V139.083Z" fill="white"/>
<path opacity="0.1" d="M593.413 143.196H484.107V145.177H593.413V143.196Z" fill="white"/>
<path opacity="0.1" d="M593.413 147.31H484.107V149.29H593.413V147.31Z" fill="white"/>
<path opacity="0.1" d="M593.413 151.27H484.107V153.25H593.413V151.27Z" fill="white"/>
<path opacity="0.1" d="M593.413 155.383H484.107V157.364H593.413V155.383Z" fill="white"/>
<path opacity="0.1" d="M593.413 159.497H484.107V161.477H593.413V159.497Z" fill="white"/>
<path opacity="0.1" d="M593.413 163.609H484.107V165.59H593.413V163.609Z" fill="white"/>
<path opacity="0.1" d="M593.413 167.57H484.107V169.551H593.413V167.57Z" fill="white"/>
<path opacity="0.1" d="M593.413 171.683H484.107V173.663H593.413V171.683Z" fill="white"/>
<path opacity="0.1" d="M593.413 175.796H484.107V177.777H593.413V175.796Z" fill="white"/>
<path opacity="0.1" d="M593.413 179.91H484.107V181.89H593.413V179.91Z" fill="white"/>
<path opacity="0.1" d="M593.413 183.87H484.107V185.85H593.413V183.87Z" fill="white"/>
<path opacity="0.1" d="M593.413 187.983H484.107V189.964H593.413V187.983Z" fill="white"/>
<path opacity="0.1" d="M593.413 192.097H484.107V194.077H593.413V192.097Z" fill="white"/>
<path opacity="0.1" d="M593.413 196.209H484.107V198.19H593.413V196.209Z" fill="white"/>
<path opacity="0.1" d="M593.413 200.17H484.107V202.151H593.413V200.17Z" fill="white"/>
<path opacity="0.1" d="M593.413 204.283H484.107V206.264H593.413V204.283Z" fill="white"/>
<path opacity="0.1" d="M593.413 208.396H484.107V210.377H593.413V208.396Z" fill="white"/>
<path opacity="0.1" d="M593.413 212.51H484.107V214.49H593.413V212.51Z" fill="white"/>
<path opacity="0.1" d="M593.413 216.623H484.107V218.603H593.413V216.623Z" fill="white"/>
<path opacity="0.1" d="M593.413 220.583H484.107V222.564H593.413V220.583Z" fill="white"/>
</g>
<path opacity="0.1" d="M528.865 117.908H498.874H488.065V128.724V158.734H498.874V128.724H528.865V117.908Z" fill="white"/>
<path opacity="0.1" d="M588.542 175.187H577.733V216.013H588.542V175.187Z" fill="white"/>
<path d="M656.287 136.341L642.586 136.951L634.365 137.255L633.908 128.42L620.055 124.611L633.756 124.002L641.977 123.545L642.433 132.38L656.287 136.341Z" fill="#747554"/>
<path d="M628.732 155.688L622.338 147.919L618.532 143.196L623.556 139.083L619.75 129.333L625.992 137.103L629.95 141.673L624.926 145.786L628.732 155.688Z" fill="#747554"/>
<g opacity="0.3">
<path d="M560.226 187.069C557.181 187.069 555.506 187.069 552.462 187.069C552.309 192.706 553.07 195.448 558.399 200.932C553.223 200.932 550.635 200.932 545.306 200.932C539.826 195.295 539.065 192.553 538.913 187.069C527.799 187.069 522.319 187.069 511.206 187.069C510.901 183.108 511.51 181.128 512.728 177.167C524.907 166.047 547.133 152.794 546.372 133.751C551.853 133.751 554.745 133.751 560.226 133.751C572.709 147.005 561.748 163.305 554.897 175.949C558.094 175.949 559.617 175.949 562.814 175.949C561.291 180.519 560.378 182.651 560.226 187.069ZM541.653 176.101C543.48 171.531 544.85 169.246 547.133 164.676C548.047 162.848 549.569 159.953 550.939 156.45C552.309 152.794 552.614 150.813 552.766 150.204C552.614 150.204 552.614 150.204 552.462 150.204C551.091 152.641 548.96 155.231 546.524 157.516C538.76 164.98 533.584 168.637 525.972 176.101C532.062 176.101 535.259 176.101 541.653 176.101Z" fill="white"/>
</g>
<path opacity="0.1" d="M684.603 44.4824H672.576C668.77 44.4824 665.573 47.5291 665.573 51.4899C665.573 55.4506 668.618 58.4974 672.576 58.4974H684.603C688.409 58.4974 691.606 55.4506 691.606 51.4899C691.606 47.5291 688.561 44.4824 684.603 44.4824Z" fill="black"/>
<path opacity="0.1" d="M645.63 33.3616H652.177C655.982 33.3616 659.179 30.3149 659.179 26.3542C659.179 22.5457 656.135 19.3467 652.177 19.3467H611.529C607.724 19.3467 604.527 22.3934 604.527 26.3542C604.527 30.1626 607.571 33.3616 611.529 33.3616H616.706C619.75 33.3616 622.338 35.799 622.338 38.9981C622.338 42.0448 619.902 44.6345 616.706 44.6345H578.799C574.993 44.6345 571.796 47.6813 571.796 51.642C571.796 55.6028 574.841 58.6495 578.799 58.6495H580.321C583.366 58.6495 585.954 61.0869 585.954 64.2859C585.954 67.3327 583.518 69.9224 580.321 69.9224H578.037C573.014 69.9224 568.903 74.0355 568.903 79.0626C568.903 84.0897 573.014 88.2028 578.037 88.2028H598.437C601.939 88.2028 604.983 91.0971 604.983 94.7532C604.983 98.257 602.091 101.304 598.437 101.304H592.348C587.324 101.304 583.214 105.417 583.214 110.444C583.214 115.471 587.324 119.584 592.348 119.584H633.299C638.323 119.584 642.433 115.471 642.433 110.444C642.433 105.417 638.323 101.304 633.299 101.304H632.081C628.58 101.304 625.535 98.4093 625.535 94.7532C625.535 91.2495 628.428 88.2028 632.081 88.2028H644.26C649.284 88.2028 653.394 84.0897 653.394 79.0626C653.394 74.0355 649.284 69.9224 644.26 69.9224H640.911C637.866 69.9224 635.278 67.485 635.278 64.2859C635.278 61.0869 637.714 58.6495 640.911 58.6495H652.329C656.135 58.6495 659.332 55.6028 659.332 51.642C659.332 47.6813 656.287 44.6345 652.329 44.6345H645.783C642.738 44.6345 640.15 42.1971 640.15 38.9981C640.15 35.799 642.586 33.3616 645.63 33.3616ZM603.613 63.9813C603.613 60.9345 606.049 58.3448 609.246 58.3448H611.834C614.879 58.3448 617.467 60.7822 617.467 63.9813C617.467 67.028 615.031 69.6177 611.834 69.6177H609.246C606.049 69.6177 603.613 67.028 603.613 63.9813Z" fill="black"/>
<path opacity="0.1" d="M590.369 13.8626H606.354C610.16 13.8626 613.357 10.8159 613.357 6.85513C613.357 3.04672 610.312 -0.152344 606.354 -0.152344H590.369C586.563 -0.152344 583.366 2.89439 583.366 6.85513C583.366 10.8159 586.563 13.8626 590.369 13.8626Z" fill="black"/>
<path d="M552.767 81.3475L542.11 76.0157C540.74 75.2541 540.131 73.5784 540.74 72.2073C541.501 70.8363 543.176 70.227 544.546 70.8363L555.355 76.1681C556.725 76.9298 557.334 78.6055 556.725 79.9765C555.964 81.3475 554.289 81.9569 552.767 81.3475Z" fill="#747554"/>
<path d="M560.835 72.36L556.42 61.2395C555.811 59.7161 556.572 58.0404 558.095 57.4311C559.617 56.8217 561.292 57.5834 561.901 59.1068L566.316 70.2273C566.924 71.7507 566.163 73.4264 564.641 74.0357C563.119 74.6451 561.444 73.8834 560.835 72.36Z" fill="#747554"/>
<path d="M392.31 242.215H268.085C264.279 242.215 261.082 239.168 261.082 235.207V99.171C261.082 95.3626 264.127 92.1636 268.085 92.1636H392.31C396.116 92.1636 399.312 95.2103 399.312 99.171V235.36C399.16 239.168 396.116 242.215 392.31 242.215Z" fill="#FFDEB3"/>
<path d="M379.673 221.954H280.72C277.827 221.954 275.544 219.669 275.544 216.775V117.756C275.544 114.862 277.827 112.577 280.72 112.577H379.673C382.566 112.577 384.849 114.862 384.849 117.756V216.775C384.697 219.669 382.414 221.954 379.673 221.954Z" fill="#B54528"/>
<path d="M405.858 300.56H254.231C248.598 300.56 244.031 295.99 244.031 290.353V252.574C244.031 246.937 248.598 242.367 254.231 242.367H405.858C411.491 242.367 416.058 246.937 416.058 252.574V290.353C416.058 295.99 411.491 300.56 405.858 300.56Z" fill="#FFD6A0"/>
<path d="M416.058 252.421H244.031V264.151H416.058V252.421Z" fill="#FFDEB3"/>
<path d="M407.99 268.265H351.967V274.663H407.99V268.265Z" fill="#BFA178"/>
<path d="M348.16 268.265H334.764V274.663H348.16V268.265Z" fill="#BFA178"/>
<path d="M330.197 268.265H316.8V274.663H330.197V268.265Z" fill="#BFA178"/>
<path d="M309.95 274.51C311.716 274.51 313.147 273.078 313.147 271.311C313.147 269.545 311.716 268.112 309.95 268.112C308.184 268.112 306.753 269.545 306.753 271.311C306.753 273.078 308.184 274.51 309.95 274.51Z" fill="#BFA178"/>
<path d="M381.653 235.055C383.419 235.055 384.85 233.623 384.85 231.856C384.85 230.089 383.419 228.657 381.653 228.657C379.887 228.657 378.456 230.089 378.456 231.856C378.456 233.623 379.887 235.055 381.653 235.055Z" fill="#BFA178"/>
<path d="M281.786 255.316H249.664V261.257H281.786V255.316Z" fill="#BFA178"/>
<g opacity="0.5">
<path opacity="0.1" d="M384.697 114.709H275.392V116.69H384.697V114.709Z" fill="white"/>
<path opacity="0.1" d="M384.697 118.67H275.392V120.651H384.697V118.67Z" fill="white"/>
<path opacity="0.1" d="M384.697 122.783H275.392V124.764H384.697V122.783Z" fill="white"/>
<path opacity="0.1" d="M384.697 126.896H275.392V128.877H384.697V126.896Z" fill="white"/>
<path opacity="0.1" d="M384.697 131.009H275.392V132.99H384.697V131.009Z" fill="white"/>
<path opacity="0.1" d="M384.697 134.97H275.392V136.951H384.697V134.97Z" fill="white"/>
<path opacity="0.1" d="M384.697 139.083H275.392V141.064H384.697V139.083Z" fill="white"/>
<path opacity="0.1" d="M384.697 143.196H275.392V145.177H384.697V143.196Z" fill="white"/>
<path opacity="0.1" d="M384.697 147.31H275.392V149.29H384.697V147.31Z" fill="white"/>
<path opacity="0.1" d="M384.697 151.27H275.392V153.25H384.697V151.27Z" fill="white"/>
<path opacity="0.1" d="M384.697 155.383H275.392V157.364H384.697V155.383Z" fill="white"/>
<path opacity="0.1" d="M384.697 159.497H275.392V161.477H384.697V159.497Z" fill="white"/>
<path opacity="0.1" d="M384.697 163.609H275.392V165.59H384.697V163.609Z" fill="white"/>
<path opacity="0.1" d="M384.697 167.57H275.392V169.551H384.697V167.57Z" fill="white"/>
<path opacity="0.1" d="M384.697 171.683H275.392V173.663H384.697V171.683Z" fill="white"/>
<path opacity="0.1" d="M384.697 175.796H275.392V177.777H384.697V175.796Z" fill="white"/>
<path opacity="0.1" d="M384.697 179.91H275.392V181.89H384.697V179.91Z" fill="white"/>
<path opacity="0.1" d="M384.697 183.87H275.392V185.85H384.697V183.87Z" fill="white"/>
<path opacity="0.1" d="M384.697 187.983H275.392V189.964H384.697V187.983Z" fill="white"/>
<path opacity="0.1" d="M384.697 192.097H275.392V194.077H384.697V192.097Z" fill="white"/>
<path opacity="0.1" d="M384.697 196.209H275.392V198.19H384.697V196.209Z" fill="white"/>
<path opacity="0.1" d="M384.697 200.17H275.392V202.151H384.697V200.17Z" fill="white"/>
<path opacity="0.1" d="M384.697 204.283H275.392V206.264H384.697V204.283Z" fill="white"/>
<path opacity="0.1" d="M384.697 208.396H275.392V210.377H384.697V208.396Z" fill="white"/>
<path opacity="0.1" d="M384.697 212.51H275.392V214.49H384.697V212.51Z" fill="white"/>
<path opacity="0.1" d="M384.697 216.623H275.392V218.603H384.697V216.623Z" fill="white"/>
<path opacity="0.1" d="M384.697 220.583H275.392V222.564H384.697V220.583Z" fill="white"/>
</g>
<path opacity="0.7" d="M349.988 169.855C346.03 163.914 340.245 161.02 332.48 161.02C324.564 161.02 318.627 163.762 314.821 169.398C311.015 175.034 309.036 183.718 309.036 195.6C309.036 207.025 311.015 215.556 314.973 221.345C318.931 227.134 324.716 230.028 332.48 230.028C340.397 230.028 346.334 227.286 350.292 221.649C354.098 216.013 356.077 207.33 356.077 195.6C355.925 184.327 353.946 175.644 349.988 169.855ZM325.325 177.929C326.696 174.273 329.131 172.597 332.48 172.597C334.764 172.597 336.439 173.511 337.961 175.034L323.499 203.064C323.346 200.779 323.194 198.342 323.194 195.6C323.194 187.374 323.803 181.433 325.325 177.929ZM339.636 213.271C338.113 216.927 335.83 218.755 332.48 218.755C330.654 218.755 329.131 218.298 327.913 217.232L341.767 190.573C341.767 192.249 341.919 193.924 341.919 195.752C341.767 203.826 341.006 209.615 339.636 213.271Z" fill="white"/>
<path opacity="0.7" d="M349.988 60.4776C346.03 54.5365 340.245 51.6421 332.48 51.6421C324.564 51.6421 318.627 54.3841 314.821 60.0206C311.015 65.657 309.036 74.3402 309.036 86.2225C309.036 97.6477 311.015 106.179 314.973 111.967C318.931 117.756 324.716 120.65 332.48 120.65C340.397 120.65 346.334 117.908 350.292 112.272C354.098 106.636 356.077 97.9524 356.077 86.2225C355.925 74.9496 353.946 66.4187 349.988 60.4776ZM325.325 68.5514C326.696 64.8954 329.131 63.2197 332.48 63.2197C334.764 63.2197 336.439 64.1337 337.961 65.657L323.346 93.6869C323.194 91.4019 323.042 88.9645 323.042 86.2225C323.194 77.9963 323.803 72.0552 325.325 68.5514ZM339.636 103.893C338.113 107.55 335.83 109.378 332.48 109.378C330.654 109.378 329.131 108.921 327.913 107.854L341.767 81.1954C341.767 82.8711 341.919 84.5468 341.919 86.3748C341.767 94.4486 341.006 100.237 339.636 103.893Z" fill="white"/>
<path opacity="0.1" d="M320.149 117.908H290.311H279.502V128.724V158.734H290.311V128.724H320.149V117.908Z" fill="white"/>
<path opacity="0.1" d="M379.826 175.187H369.018V216.013H379.826V175.187Z" fill="white"/>
<path d="M423.518 304.064L432.804 311.68C434.022 312.747 434.174 314.575 433.261 315.793C432.195 317.012 430.369 317.165 429.151 316.25L419.864 308.634C418.646 307.567 418.494 305.739 419.408 304.521C420.473 303.15 422.3 302.997 423.518 304.064Z" fill="#747554"/>
<path d="M413.622 310.766L415.297 322.649C415.601 324.172 414.383 325.695 412.861 326C411.338 326.305 409.816 325.086 409.512 323.563L407.837 311.68C407.533 310.157 408.75 308.634 410.273 308.329C411.947 308.177 413.47 309.243 413.622 310.766Z" fill="#747554"/>
<path d="M369.474 99.0187L373.889 92.7729C374.041 92.6206 374.041 92.3159 374.041 92.1636H371.757L367.343 98.4094L362.623 102.065C362.167 102.37 362.014 102.979 362.471 103.436C362.623 103.741 362.928 103.893 363.232 103.893C363.384 103.893 363.689 103.893 363.841 103.741L368.104 100.542L371.91 103.893L370.54 108.921C370.387 109.53 370.692 109.987 371.301 110.139C371.453 110.139 371.453 110.139 371.605 110.139C372.062 110.139 372.519 109.835 372.519 109.378L374.041 103.741C374.193 103.436 374.041 102.979 373.737 102.675L369.474 99.0187Z" fill="#BFA178"/>
</g>
<defs>
<clipPath id="clip0_2_6836">
<rect width="691" height="326" fill="white" transform="translate(0.605469)"/>
</clipPath>
</defs>
</svg>
