<svg width="32" height="32" viewBox="0 0 32 32" fill="none" xmlns="http://www.w3.org/2000/svg">
<path d="M2.81774 6.93408C1.78595 8.43167 1.00183 10.1132 0.526367 11.9205H7.80446L2.81774 6.93408Z" fill="#29337A"/>
<path d="M11.519 0.640381C9.67552 1.17725 7.96824 2.03393 6.46484 3.15131L11.519 8.20545V0.640381Z" fill="#29337A"/>
<path d="M6.84082 29.1155C8.25099 30.1023 9.82646 30.8662 11.5191 31.3591V24.438L6.84082 29.1155Z" fill="#29337A"/>
<path d="M0.709961 20.7241C1.23899 22.4378 2.04967 24.0276 3.08571 25.4418L7.80336 20.7241H0.709961Z" fill="#29337A"/>
<path d="M3.08231 6.56274C2.99286 6.68502 2.9047 6.80905 2.8183 6.93437L7.80503 11.9208H0.52693C0.408977 12.3697 0.312709 12.8273 0.233398 13.2911H9.81124L3.08231 6.56274Z" fill="white"/>
<path d="M6.46973 28.8516C6.59146 28.9423 6.71658 29.0287 6.84081 29.1156L11.5191 24.4379V31.359C11.9685 31.4904 12.425 31.6038 12.8894 31.695V22.4321L6.46973 28.8516Z" fill="white"/>
<path d="M0.355469 19.354C0.454776 19.8183 0.571986 20.2756 0.710679 20.7243H7.80414L3.08649 25.442C3.59958 26.143 4.16854 26.8009 4.78675 27.4092L12.8419 19.354H0.355469Z" fill="white"/>
<path d="M11.5194 0.640468V8.20554L6.46523 3.15167C5.76846 3.66982 5.11715 4.24506 4.51367 4.86779L12.8895 13.2436V0.304443C12.4254 0.396185 11.9689 0.509882 11.5194 0.640468Z" fill="white"/>
<path d="M11.5187 20.676L11.4707 20.7243H11.5187V20.676Z" fill="#D32030"/>
<path d="M12.8408 19.3539H12.8888V19.3057L12.8408 19.3539Z" fill="#D32030"/>
<path d="M18.9984 13.2908H18.9521V13.3373L18.9984 13.2908Z" fill="#D32030"/>
<path d="M11.5658 11.9208L11.5186 11.8733V11.9208H11.5658Z" fill="#D32030"/>
<path d="M12.8887 13.2437V13.2909H12.936L12.8887 13.2437Z" fill="#D32030"/>
<path d="M20.3223 27.8172V31.4038C22.0369 30.9238 23.6356 30.1672 25.0655 29.1814L21.1792 25.2952C20.8687 26.3863 20.755 26.9504 20.3223 27.8172Z" fill="#252F6C"/>
<path d="M21.1997 7.32788L25.4421 3.08542C23.918 1.96925 22.189 1.11866 20.3223 0.595703V4.28008C20.8212 5.27924 20.8632 6.03843 21.1997 7.32788Z" fill="#252F6C"/>
<path d="M28.848 25.5352C29.9164 24.098 30.7491 22.4756 31.2899 20.7244H24.0371L28.848 25.5352Z" fill="#252F6C"/>
<path d="M31.473 11.9207C30.9874 10.0752 30.1797 8.36216 29.1154 6.84106L24.0352 11.9207H31.473Z" fill="#252F6C"/>
<path d="M22.1338 19.6251L23.2333 20.7246L28.4961 25.9874C28.6156 25.8378 28.7343 25.6888 28.8485 25.5354L24.0377 20.7246H31.2905C31.4287 20.2761 31.5461 19.8186 31.6452 19.3542H22.2366C22.2212 19.5485 22.1522 19.4321 22.1338 19.6251Z" fill="#E7E7E7"/>
<path d="M21.0338 8.13027L25.8038 3.35979C25.6843 3.26711 25.5645 3.17489 25.4425 3.08545L21.2 7.32791C21.244 7.49565 20.9929 7.95848 21.0338 8.13027Z" fill="#E7E7E7"/>
<path d="M20.3225 3.98529V0.595461C19.8735 0.469671 19.4165 0.363068 18.9521 0.276123V1.92963C19.462 2.48237 19.919 3.17665 20.3225 3.98529Z" fill="#E7E7E7"/>
<path d="M22.0262 13.2909H31.7674C31.6883 12.827 31.5919 12.3697 31.4739 11.9205H24.0361L29.1163 6.84086C28.6169 6.1274 28.0619 5.45644 27.4555 4.83472L21.7334 10.5563C21.8875 11.5942 21.9565 12.1969 22.0262 13.2909Z" fill="#E7E7E7"/>
<path d="M20.9482 25.0636L25.0659 29.1817C25.7508 28.7101 26.3958 28.1851 26.9976 27.6152L21.5814 22.1987C21.4085 23.2005 21.2034 24.168 20.9482 25.0636Z" fill="#E7E7E7"/>
<path d="M18.9521 29.8802V31.7231C19.4165 31.6367 19.8733 31.5296 20.3225 31.4038V27.8171C19.9187 28.6261 19.4617 29.3282 18.9521 29.8802Z" fill="#E7E7E7"/>
<path d="M21.7334 10.5564L27.455 4.83475C26.9398 4.30572 26.3876 3.81337 25.8035 3.35986L21.3076 7.85647C21.5074 8.69167 21.5982 9.64765 21.7334 10.5564Z" fill="#D71F28"/>
<path d="M15.2012 0.0197264C15.4677 0.00682317 15.7335 0 15.9995 0C15.732 0 15.4657 0.00682317 15.2012 0.0197264Z" fill="#D32030"/>
<path d="M15.999 31.9999C15.733 31.9999 15.4672 31.9926 15.2012 31.9797C15.4657 31.9931 15.7315 31.9999 15.999 31.9999Z" fill="#D32030"/>
<path d="M15.999 32C17.0085 32 17.9943 31.9022 18.9518 31.7231V29.8801C18.1113 30.7911 17.1281 32 15.999 32Z" fill="#D32030"/>
<path d="M31.7671 13.2908H22.1525C22.2798 15.2975 22.2644 17.361 22.1064 19.3539H31.6454C31.8763 18.2719 32 17.1507 32 16.0002C32 15.0761 31.9177 14.1722 31.7671 13.2908Z" fill="#D71F28"/>
<path d="M22.1338 19.625C22.0449 20.5704 21.7352 21.307 21.5811 22.1988L26.9972 27.615C27.5331 27.1072 28.034 26.564 28.4958 25.9873L23.2332 20.7242L22.1338 19.625Z" fill="#D71F28"/>
<path d="M18.9528 2.04857V0.276372C17.9956 0.0977538 17.0098 0 16 0C17.1291 0 18.1123 1.13785 18.9528 2.04857Z" fill="#D32030"/>
<path d="M20.3223 28.5094C20.755 27.6424 21.1261 26.6442 21.4369 25.5533L20.3223 24.4387V28.5094Z" fill="#29337A"/>
<path d="M21.5756 6.95205C21.2385 5.6626 20.8212 4.49037 20.3223 3.49121V8.20481L21.5756 6.95205Z" fill="#29337A"/>
<path d="M22.4446 19.9353C22.4628 19.7423 22.4792 19.5486 22.4949 19.354H21.8633L22.4446 19.9353Z" fill="white"/>
<path d="M20.3225 8.20483V3.49097C19.9187 2.68232 19.462 1.98757 18.9521 1.4353V10.2113L21.704 7.45935C21.6626 7.28756 21.6191 7.11928 21.5757 6.95153L20.3225 8.20483Z" fill="white"/>
<path d="M18.999 13.291H22.5409C22.4715 12.1971 22.3608 11.1208 22.2069 10.0833L18.999 13.291Z" fill="white"/>
<path d="M18.9521 30.5647C19.462 30.0119 19.9187 29.3176 20.3225 28.509V24.4383L21.4371 25.5529C21.6927 24.6569 21.9072 23.6996 22.0805 22.6979L18.9522 19.5698L18.9521 30.5647Z" fill="white"/>
<path d="M18.9525 30.5646V19.5697L22.0807 22.6981C22.2345 21.806 22.3555 20.8809 22.4442 19.9353L21.8629 19.354H22.4944C22.6523 17.3609 22.6677 15.2974 22.5404 13.2908H18.9985L22.2062 10.0831C22.0711 9.17413 21.9039 8.29495 21.704 7.45948L18.9526 10.2114V1.43543C18.112 0.524438 17.1288 0 15.9997 0C15.7337 0 15.4679 0.00682317 15.2014 0.0197264C14.4145 0.0591116 13.6427 0.15592 12.8893 0.304476V13.2436L4.51329 4.86776C3.99865 5.39882 3.51995 5.96467 3.08184 6.56267L8.43993 11.9208L9.81071 13.2911H0.232934C0.0828914 14.1722 0 15.0761 0 16.0003C0 17.151 0.124303 18.2719 0.35467 19.354H12.8413L4.78615 27.4092C5.31363 27.9273 5.87522 28.4099 6.46972 28.8514L12.8891 22.432V31.6951C13.6424 31.8436 14.4147 31.9403 15.2017 31.9798C15.4677 31.9927 15.7335 32 15.9995 32C17.1288 32 18.112 31.4756 18.9525 30.5646Z" fill="#E51D35"/>
</svg>
