<svg width="32" height="32" viewBox="0 0 32 32" fill="none" xmlns="http://www.w3.org/2000/svg">
<g clip-path="url(#clip0_553_6863)">
<path d="M0.996094 21.5643C3.25654 27.6576 9.12054 31.9999 16.0005 31.9999C22.8805 31.9999 28.7445 27.6576 31.005 21.5643L16.0005 20.1741L0.996094 21.5643Z" fill="#FFDA44"/>
<path d="M16.0005 0C9.12054 0 3.25654 4.34222 0.996094 10.4356L16.0005 11.8258L31.005 10.4347C28.7445 4.34222 22.8805 0 16.0005 0Z" fill="#3D3D3D"/>
<path d="M0.995564 10.4357C0.335356 12.2165 -0.00177949 14.1009 7.92928e-06 16.0002C-0.00188527 17.8997 0.335252 19.7844 0.995564 21.5655H31.0044C31.6648 19.7844 32.0019 17.8997 32 16.0002C32.0019 14.1006 31.6648 12.216 31.0044 10.4348H0.995564V10.4357Z" fill="#D80027"/>
</g>
<defs>
<clipPath id="clip0_553_6863">
<rect width="32" height="32" fill="white"/>
</clipPath>
</defs>
</svg>
