<svg width="32" height="32" viewBox="0 0 32 32" fill="none" xmlns="http://www.w3.org/2000/svg">
<circle cx="16" cy="16" r="15.5" stroke="#151515"/>
<path fill-rule="evenodd" clip-rule="evenodd" d="M12.2894 7.054C13.2494 7.0105 13.5557 7 16 7C18.4443 7 18.7506 7.0105 19.7106 7.054C21.1739 7.12075 22.4583 7.47925 23.4895 8.5105C24.5211 9.54212 24.8792 10.8269 24.946 12.2894C24.9895 13.2494 25 13.5557 25 16C25 18.4443 24.9895 18.7506 24.946 19.7106C24.8792 21.1739 24.5208 22.4583 23.4895 23.4895C22.4579 24.5211 21.1727 24.8792 19.7106 24.946C18.7506 24.9895 18.4443 25 16 25C13.5557 25 13.2494 24.9895 12.2894 24.946C10.8261 24.8792 9.54175 24.5208 8.5105 23.4895C7.47887 22.4579 7.12075 21.1731 7.054 19.7106C7.0105 18.7506 7 18.4443 7 16C7 13.5557 7.0105 13.2494 7.054 12.2894C7.12075 10.8261 7.47925 9.54175 8.5105 8.5105C9.54212 7.47887 10.8269 7.12075 12.2894 7.054ZM19.6368 8.674C18.6876 8.6305 18.403 8.6215 16 8.6215C13.597 8.6215 13.3124 8.63087 12.3632 8.674C11.3391 8.72088 10.3885 8.926 9.65725 9.65725C8.926 10.3885 8.72088 11.3391 8.674 12.3632C8.6305 13.3124 8.6215 13.597 8.6215 16C8.6215 18.403 8.63087 18.6876 8.674 19.6368C8.72088 20.6609 8.926 21.6115 9.65725 22.3427C10.3885 23.074 11.3391 23.2791 12.3632 23.326C13.312 23.3695 13.5966 23.3785 16 23.3785C18.4034 23.3785 18.688 23.3691 19.6368 23.326C20.6609 23.2791 21.6115 23.074 22.3427 22.3427C23.074 21.6115 23.2791 20.6609 23.326 19.6368C23.3695 18.6876 23.3785 18.403 23.3785 16C23.3785 13.597 23.3691 13.3124 23.326 12.3632C23.2791 11.3391 23.074 10.3885 22.3427 9.65725C21.6115 8.926 20.6609 8.72088 19.6368 8.674Z" fill="#151515"/>
<path fill-rule="evenodd" clip-rule="evenodd" d="M11.9092 16.4092C11.9092 13.924 13.9237 11.9092 16.4092 11.9092C18.8947 11.9092 20.9092 13.9237 20.9092 16.4092C20.9092 18.8947 18.8947 20.9092 16.4092 20.9092C13.9237 20.9092 11.9092 18.8943 11.9092 16.4092ZM13.4881 16.4092C13.4881 18.0224 14.796 19.3303 16.4092 19.3303C18.0224 19.3303 19.3303 18.0224 19.3303 16.4092C19.3303 14.796 18.0224 13.4881 16.4092 13.4881C14.796 13.4881 13.4881 14.796 13.4881 16.4092Z" fill="#151515"/>
<circle cx="20.4997" cy="11.5" r="1.22727" fill="#151515"/>
</svg>
