<svg width="32" height="32" viewBox="0 0 32 32" fill="none" xmlns="http://www.w3.org/2000/svg">
<circle cx="16" cy="16" r="15.5" stroke="white"/>
<path d="M24.0002 24.0001V18.1401C24.0002 15.2601 23.3802 13.0601 20.0202 13.0601C18.4002 13.0601 17.3202 13.9401 16.8802 14.7801H16.8402V13.3201H13.6602V24.0001H16.9802V18.7001C16.9802 17.3001 17.2402 15.9601 18.9602 15.9601C20.6602 15.9601 20.6802 17.5401 20.6802 18.7801V23.9801H24.0002V24.0001Z" fill="white"/>
<path d="M8.25977 13.3201H11.5798V24.0001H8.25977V13.3201Z" fill="white"/>
<path d="M9.92 8C8.86 8 8 8.86 8 9.92C8 10.98 8.86 11.86 9.92 11.86C10.98 11.86 11.84 10.98 11.84 9.92C11.84 8.86 10.98 8 9.92 8Z" fill="white"/>
</svg>
