<svg width="32" height="32" viewBox="0 0 32 32" fill="none" xmlns="http://www.w3.org/2000/svg">
<circle cx="16" cy="16" r="15.5" stroke="#151515"/>
<path d="M24.5 10.2397C23.8625 10.549 23.1896 10.7423 22.4812 10.8582C23.1896 10.3943 23.7563 9.65979 24.0042 8.77062C23.3313 9.19588 22.5875 9.50515 21.7729 9.69845C21.1354 8.96392 20.2146 8.5 19.2229 8.5C17.3104 8.5 15.7521 10.201 15.7521 12.2887C15.7521 12.5979 15.7875 12.8686 15.8583 13.1392C12.9896 12.9845 10.4042 11.4768 8.66875 9.15722C8.38542 9.73711 8.20833 10.3557 8.20833 11.0515C8.20833 12.366 8.81042 13.5258 9.76667 14.2216C9.2 14.183 8.66875 14.0284 8.17292 13.7577V13.7964C8.17292 15.6521 9.37708 17.1985 10.9708 17.5464C10.6875 17.6237 10.3687 17.6624 10.05 17.6624C9.8375 17.6624 9.58958 17.6237 9.37708 17.5851C9.8375 19.0928 11.1125 20.2139 12.6354 20.2139C11.4312 21.2191 9.94375 21.8376 8.31458 21.8376C8.03125 21.8376 7.74792 21.8376 7.5 21.799C9.05833 22.8814 10.8646 23.5 12.8479 23.5C19.2583 23.5 22.7646 17.701 22.7646 12.6753C22.7646 12.5206 22.7646 12.3273 22.7646 12.1727C23.4375 11.6701 24.0396 11.0129 24.5 10.2397Z" fill="#151515"/>
</svg>
