<svg width="150" height="40" viewBox="0 0 150 40" fill="none" xmlns="http://www.w3.org/2000/svg">
<path d="M2.65918 8.27512C3.07882 8.4284 3.38239 8.58018 3.45977 8.96114C3.53567 9.15161 3.76335 9.26619 3.95382 9.34209C4.22168 9.41798 4.56394 9.41798 4.869 9.45667C5.28716 9.49387 5.744 9.53256 6.12495 9.72304C6.23954 9.79893 6.43001 9.79893 6.5818 9.83762C10.0104 9.79893 6.12495 16.5787 5.66811 17.912C4.83031 20.2349 4.18299 22.5966 3.68745 24.9195C3.49698 26.0236 3.34519 27.0906 3.23061 28.1948C3.15472 29.1472 3.42108 30.0222 3.68745 30.8599C3.76335 31.0504 3.91662 31.2409 4.06841 31.3942C4.29757 31.6219 4.71573 31.5088 5.02079 31.2037L5.55352 30.8599C6.01037 30.6323 6.39132 30.3272 6.69638 29.8704C6.84966 29.6412 7.03864 29.4135 7.22912 29.223C7.53418 28.8808 7.72466 28.537 7.80055 28.1561C7.91513 27.662 8.10561 27.1665 8.29608 26.671C8.41067 26.4046 8.52525 26.0995 8.52525 25.8332C8.52525 25.415 8.60114 24.9954 8.71573 24.5385L9.0193 23.6248L9.59073 21.8346C9.62942 21.6814 9.70531 21.5296 9.744 21.3391C9.89579 20.7305 10.0104 20.0817 10.2767 19.4344C10.8482 18.2543 11.305 17.0742 11.7619 15.8927C11.8764 15.5504 12.0669 15.2454 12.2187 14.9403C13.6279 13.418 13.4761 9.26619 15.9508 9.15161C16.5223 9.03703 17.0565 9.03703 17.6279 8.80935C18.122 8.58018 18.6175 8.38971 19.0744 8.16203L20.2544 7.47602C20.5223 7.36143 20.6741 7.13375 20.75 6.90459C20.9404 6.10548 21.0163 5.34358 20.8258 4.61887C20.7886 4.50578 20.75 4.39119 20.6741 4.27661C20.2544 4.54298 19.9122 4.58167 19.5312 4.61887C17.8943 4.77215 16.2559 4.92393 14.619 5.11441L11.0386 5.60994C10.2008 5.72453 9.32436 5.87631 8.48656 6.14268C7.72466 6.37185 7.00144 6.59953 6.27823 6.7528C5.51632 6.94328 4.79162 7.17096 4.0312 7.47602C3.57287 7.66649 3.15472 7.89417 2.65918 8.27512Z" fill="#FF5757"/>
<path d="M16.0262 17.7217C15.989 17.8348 16.0262 17.9494 15.989 18.0253C16.3699 17.3021 16.5976 16.503 17.1691 15.7411C17.1304 16.0075 17.0545 16.2738 16.9786 16.5402L15.4548 20.4256C14.4265 23.1295 13.7033 25.7575 13.5887 28.3095C13.5515 29.2619 13.5515 30.2515 13.3223 31.2798C13.2464 31.5462 13.5887 32.003 13.7792 32.0417C14.236 32.1176 14.7702 32.0789 15.3417 32.003C15.8357 31.8884 16.3313 31.6607 16.8268 31.3557C17.0932 31.1652 17.3208 30.8988 17.6646 30.8601C17.7405 30.8601 17.8551 30.747 17.931 30.6325C18.3878 30.2128 18.5396 29.756 18.6542 29.2619C18.8074 28.6518 18.9979 28.0045 19.3402 27.3572C19.6452 26.747 19.8729 26.1384 20.1393 25.5283C20.3685 24.9956 20.6348 24.4628 21.0545 24.006C21.7018 23.2813 22.1958 22.5194 22.5768 21.7203C22.8819 21.1488 23.2241 20.6161 23.6824 20.1206C24.1393 19.625 24.5202 19.0923 24.7866 18.5595C25.0917 17.9881 25.4711 17.4926 25.9667 17.0357C26.2717 16.8066 26.5009 16.503 26.6899 16.2366L29.8521 11.7039C31.3744 11.3988 28.9756 15.7024 28.6705 17.4926C28.4429 18.3304 28.2137 19.1682 27.9473 19.9688H28.0232C28.2137 19.4345 28.4042 18.8631 28.5574 18.3304C28.6333 18.3304 28.6705 18.3304 28.7092 18.2932C28.4429 18.8631 28.6333 19.2828 28.3283 19.8542C28.0232 20.3869 28.1378 20.9212 27.681 21.4152C27.7569 21.5685 27.9086 21.6444 27.8714 21.759C27.8327 22.0253 27.7569 22.3289 27.6423 22.5967C27.4518 23.0149 27.4518 23.3959 27.5664 23.625C27.7955 24.006 27.2613 25.1473 27.1854 25.6429C27.1482 25.8334 27.1095 26.0238 27.1095 26.1756C27.2241 26.8616 27.3387 27.5848 27.4905 28.2337C27.7569 29.5283 29.1661 29.6042 30.4235 29.1473C30.9949 28.9182 31.5649 28.6131 32.1363 28.3095C32.4414 28.1563 32.7077 27.9286 32.9369 27.6235C33.242 27.1667 33.5455 26.7857 33.8506 26.3661C34.0798 26.0238 34.3074 25.6816 34.4979 25.3378C34.5366 25.2619 34.5738 25.1101 34.4979 25.0715C34.3461 24.881 34.3074 24.6146 34.3074 24.2723C33.5455 24.881 33.1274 25.6816 32.2509 26.2143L32.0232 25.6816C32.0232 25.6057 31.9845 25.5283 31.9458 25.4524C31.7554 25.186 32.1363 24.1965 32.2896 23.7381C32.4414 23.32 32.4414 22.939 32.3268 22.5581C32.2896 22.4435 32.3268 22.2917 32.3655 22.1399C32.4414 21.7962 32.5932 21.4911 32.6319 21.1488C32.7836 20.5402 32.8982 19.8914 33.1274 19.2441C33.242 18.9405 33.1646 18.6354 33.3179 18.3304C33.5842 17.8735 33.6988 17.4167 33.8506 16.997C34.1929 15.9316 35.7167 13.2649 36.0604 12.2366C36.4027 11.0566 36.5932 9.91371 36.4399 8.88544C36.3268 8.31401 35.983 7.97175 35.3744 7.85717C34.6125 7.74258 33.736 7.97175 32.8982 8.08485C32.7464 8.12354 32.5173 8.19943 32.3655 8.19943C32.0604 8.16223 31.7554 8.31401 31.489 8.54318L31.0708 8.84675C29.547 9.79913 27.2241 12.6563 26.1958 13.9881C25.358 15.0938 24.6333 16.2366 23.8729 17.3408C21.8923 19.625 22.5768 18.1399 23.2628 15.131C23.4146 14.4465 23.4146 13.7991 23.8342 13.0744C23.9488 12.9226 23.9101 12.7322 23.8729 12.6176C23.7583 12.2366 23.6438 11.8557 23.4533 11.5506C23.0336 10.7128 22.0827 10.4465 21.0545 10.3706C20.4443 10.3319 19.7583 10.5223 19.1884 10.4093C18.8446 10.3706 18.6929 10.4851 18.5396 10.8661C18.3119 11.4375 18.0827 12.009 17.8923 12.5804L16.0262 17.7217Z" fill="#FF5757"/>
<path d="M46.9807 20.5192V28.912H42.2188V7.99536H46.9807V16.3346H53.7307V7.99536H58.4985V28.912H53.7307V20.5192H46.9807Z" fill="#FF5757"/>
<path d="M74.77 7.99536V12.1739H67.5676V16.3346H74.4664V20.5192H67.5676V24.7275H74.77V28.912H62.8057V7.99536H74.77Z" fill="#FF5757"/>
<path d="M89.404 7.99536L97.8445 28.912H92.7254L91.1778 24.7275H83.2135L81.6659 28.912H76.5469L84.9874 7.99536H89.404ZM89.5528 20.543L87.2195 14.4596H87.1719L84.8385 20.543H89.5528Z" fill="#FF5757"/>
<path d="M104.686 7.99536V24.7275H111.888V28.912H99.9238V7.99536H104.686Z" fill="#FF5757"/>
<path d="M114.195 12.1739V7.99536H128.904V12.1739H123.933V28.912H119.166V12.1739H114.195Z" fill="#FF5757"/>
<path d="M136.657 20.5192V28.912H131.896V7.99536H136.657V16.3346H143.407V7.99536H148.175V28.912H143.407V20.5192H136.657Z" fill="#FF5757"/>
</svg>
