<svg width="32" height="32" viewBox="0 0 32 32" fill="none" xmlns="http://www.w3.org/2000/svg">
<g clip-path="url(#clip0_553_6852)">
<path d="M16 32C24.8365 32 32 24.8365 32 16C32 7.16344 24.8365 0 16 0C7.16344 0 0 7.16344 0 16C0 24.8365 7.16344 32 16 32Z" fill="#F0F0F0"/>
<path d="M15.3047 15.9995H32.0002C32.0002 14.5555 31.8078 13.1564 31.449 11.8257H15.3047V15.9995Z" fill="#D80027"/>
<path d="M15.3047 7.65123H29.6519C28.6724 6.05298 27.4202 4.64029 25.96 3.47729H15.3047V7.65123Z" fill="#D80027"/>
<path d="M16.0007 31.9995C19.7663 31.9995 23.2274 30.698 25.9605 28.5212H6.04102C8.77414 30.698 12.2352 31.9995 16.0007 31.9995Z" fill="#D80027"/>
<path d="M2.34894 24.3461H29.6522C30.4385 23.063 31.0483 21.6606 31.4493 20.1721H0.551758C0.952818 21.6606 1.56263 23.063 2.34894 24.3461Z" fill="#D80027"/>
<path d="M7.4115 2.49862H8.86957L7.51332 3.48394L8.03138 5.07825L6.67519 4.09293L5.319 5.07825L5.7665 3.70093C4.57237 4.69563 3.52575 5.861 2.66325 7.1595H3.13044L2.26713 7.78668C2.13262 8.01107 2.00363 8.239 1.88 8.47031L2.29225 9.73911L1.52313 9.18036C1.33194 9.58533 1.15707 9.99956 0.999876 10.4224L1.45406 11.8204H3.13044L1.77419 12.8057L2.29225 14.4L0.936062 13.4147L0.123687 14.005C0.042375 14.6586 0 15.3244 0 16H16C16 7.1635 16 6.12175 16 0C12.8393 0 9.8928 0.916871 7.4115 2.49862ZM8.03138 14.4L6.67519 13.4147L5.319 14.4L5.83707 12.8057L4.48081 11.8204H6.15719L6.67519 10.226L7.19319 11.8204H8.86957L7.51332 12.8057L8.03138 14.4ZM7.51332 8.14481L8.03138 9.73911L6.67519 8.75381L5.319 9.73911L5.83707 8.14481L4.48081 7.1595H6.15719L6.67519 5.56519L7.19319 7.1595H8.86957L7.51332 8.14481ZM13.7705 14.4L12.4143 13.4147L11.0581 14.4L11.5762 12.8057L10.2199 11.8204H11.8964L12.4143 10.226L12.9324 11.8204H14.6087L13.2524 12.8057L13.7705 14.4ZM13.2524 8.14481L13.7705 9.73911L12.4143 8.75381L11.0581 9.73911L11.5762 8.14481L10.2199 7.1595H11.8964L12.4143 5.56519L12.9324 7.1595H14.6087L13.2524 8.14481ZM13.2524 3.48394L13.7705 5.07825L12.4143 4.09293L11.0581 5.07825L11.5762 3.48394L10.2199 2.49862H11.8964L12.4143 0.904311L12.9324 2.49862H14.6087L13.2524 3.48394Z" fill="#0052B4"/>
</g>
<defs>
<clipPath id="clip0_553_6852">
<rect width="32" height="32" fill="white"/>
</clipPath>
</defs>
</svg>
