<svg width="21" height="20" viewBox="0 0 21 20" fill="none" xmlns="http://www.w3.org/2000/svg">
<path d="M15.7305 8.125C15.7305 6.63316 15.1378 5.20242 14.0829 4.14752C13.0281 3.09263 11.5973 2.5 10.1055 2.5C8.61363 2.5 7.18289 3.09263 6.12799 4.14752C5.0731 5.20242 4.48047 6.63316 4.48047 8.125C4.48047 10.4325 6.32672 13.44 10.1055 17.0425C13.8842 13.44 15.7305 10.4325 15.7305 8.125ZM10.1055 18.75C5.52172 14.5837 3.23047 11.0413 3.23047 8.125C3.23047 6.30164 3.9548 4.55295 5.24411 3.26364C6.53342 1.97433 8.28211 1.25 10.1055 1.25C11.9288 1.25 13.6775 1.97433 14.9668 3.26364C16.2561 4.55295 16.9805 6.30164 16.9805 8.125C16.9805 11.0413 14.6892 14.5837 10.1055 18.75Z" fill="#151515"/>
<path d="M10.1055 10C10.6027 10 11.0797 9.80246 11.4313 9.45083C11.7829 9.09919 11.9805 8.62228 11.9805 8.125C11.9805 7.62772 11.7829 7.15081 11.4313 6.79917C11.0797 6.44754 10.6027 6.25 10.1055 6.25C9.60819 6.25 9.13127 6.44754 8.77964 6.79917C8.42801 7.15081 8.23047 7.62772 8.23047 8.125C8.23047 8.62228 8.42801 9.09919 8.77964 9.45083C9.13127 9.80246 9.60819 10 10.1055 10ZM10.1055 11.25C9.27667 11.25 8.48181 10.9208 7.89576 10.3347C7.30971 9.74866 6.98047 8.9538 6.98047 8.125C6.98047 7.2962 7.30971 6.50134 7.89576 5.91529C8.48181 5.32924 9.27667 5 10.1055 5C10.9343 5 11.7291 5.32924 12.3152 5.91529C12.9012 6.50134 13.2305 7.2962 13.2305 8.125C13.2305 8.9538 12.9012 9.74866 12.3152 10.3347C11.7291 10.9208 10.9343 11.25 10.1055 11.25Z" fill="#151515"/>
</svg>
