<svg width="17" height="16" viewBox="0 0 17 16" fill="none" xmlns="http://www.w3.org/2000/svg">
<path d="M8.81258 0.292893C8.42205 -0.0976311 7.78889 -0.0976311 7.39836 0.292893L0.398362 7.29289C0.00783765 7.68342 0.00783765 8.31658 0.398362 8.70711C0.788886 9.09763 1.42205 9.09763 1.81258 8.70711L2.10547 8.41421V15C2.10547 15.5523 2.55318 16 3.10547 16H5.10547C5.65775 16 6.10547 15.5523 6.10547 15V13C6.10547 12.4477 6.55318 12 7.10547 12H9.10547C9.65775 12 10.1055 12.4477 10.1055 13V15C10.1055 15.5523 10.5532 16 11.1055 16H13.1055C13.6578 16 14.1055 15.5523 14.1055 15V8.41421L14.3984 8.70711C14.7889 9.09763 15.4221 9.09763 15.8126 8.70711C16.2031 8.31658 16.2031 7.68342 15.8126 7.29289L8.81258 0.292893Z" fill="#A0A0A0"/>
</svg>
