<svg width="18" height="14" viewBox="0 0 18 14" fill="none" xmlns="http://www.w3.org/2000/svg">
<path d="M16.6055 0.75H1.60547C1.27395 0.75 0.956006 0.881696 0.721585 1.11612C0.487165 1.35054 0.355469 1.66848 0.355469 2V12C0.355469 12.3315 0.487165 12.6495 0.721585 12.8839C0.956006 13.1183 1.27395 13.25 1.60547 13.25H16.6055C16.937 13.25 17.2549 13.1183 17.4894 12.8839C17.7238 12.6495 17.8555 12.3315 17.8555 12V2C17.8555 1.66848 17.7238 1.35054 17.4894 1.11612C17.2549 0.881696 16.937 0.75 16.6055 0.75ZM15.2305 2L9.10547 6.2375L2.98047 2H15.2305ZM1.60547 12V2.56875L8.74922 7.5125C8.85384 7.58508 8.97814 7.62397 9.10547 7.62397C9.2328 7.62397 9.3571 7.58508 9.46172 7.5125L16.6055 2.56875V12H1.60547Z" fill="#151515"/>
</svg>
