<svg width="18" height="18" viewBox="0 0 18 18" fill="none" xmlns="http://www.w3.org/2000/svg">
<path d="M15.2331 17.125H15.1268C2.84556 16.4187 1.1018 6.05625 0.858054 2.89375C0.819958 2.39797 0.980356 1.90736 1.30397 1.52983C1.62758 1.1523 2.0879 0.918778 2.58368 0.880626C2.63326 0.876876 2.68305 0.875001 2.73305 0.875001H6.0268C6.27715 0.874758 6.52181 0.949694 6.72907 1.0901C6.93634 1.23051 7.09668 1.42992 7.1893 1.6625L8.1393 4C8.23077 4.22722 8.25347 4.4763 8.20458 4.71631C8.15569 4.95631 8.03737 5.17667 7.86431 5.35L6.53305 6.69375C6.74016 7.87583 7.3058 8.96562 8.15326 9.81532C9.00073 10.665 10.089 11.2335 11.2706 11.4438L12.6268 10.1C12.8027 9.92885 13.0252 9.81328 13.2664 9.76771C13.5075 9.72214 13.7568 9.74859 13.9831 9.84375L16.3393 10.7875C16.5684 10.8831 16.7638 11.0446 16.9007 11.2517C17.0376 11.4587 17.1098 11.7018 17.1081 11.95V15.25C17.1081 15.7473 16.9105 16.2242 16.5589 16.5758C16.2073 16.9275 15.7303 17.125 15.2331 17.125ZM2.73305 2.125C2.65098 2.12475 2.56966 2.14068 2.49373 2.17186C2.41781 2.20304 2.34877 2.24887 2.29056 2.30673C2.23235 2.36459 2.18611 2.43336 2.15447 2.50909C2.12284 2.58483 2.10643 2.66605 2.10618 2.74813C2.10618 2.76563 2.1068 2.78292 2.10805 2.8C2.39555 6.5 4.23931 15.25 15.1956 15.875C15.361 15.8849 15.5236 15.8287 15.6476 15.7188C15.7716 15.6088 15.8468 15.4542 15.8568 15.2887L15.8581 15.25V11.95L13.5018 11.0062L11.7081 12.7875L11.4081 12.75C5.97055 12.0688 5.23305 6.63125 5.23305 6.575L5.19555 6.275L6.97055 4.48125L6.03305 2.125H2.73305Z" fill="#151515"/>
</svg>
