<svg width="185" height="44" viewBox="0 0 185 44" fill="none" xmlns="http://www.w3.org/2000/svg">
<path d="M176.745 43.5H7.46547C3.6919 43.5 0.605469 40.4221 0.605469 36.6667V7.33333C0.605469 3.57785 3.6919 0.5 7.46547 0.5H176.745C180.519 0.5 183.605 3.57785 183.605 7.33333V36.6667C183.605 40.4221 180.519 43.5 176.745 43.5Z" fill="#FDF0EE" stroke="#F7A193"/>
<path d="M154.605 0.000244141H8.10547C3.70547 0.000244141 0.105469 3.30024 0.105469 7.33358V36.6669C0.105469 40.7002 3.70547 44.0002 8.10547 44.0002H163.105C163.605 44.0002 164.105 44.0002 164.605 44.0002L154.605 0.000244141Z" fill="#FF5757"/>
<path d="M154.607 0C154.607 0 153.105 3.79695 147.105 6.53805C139.905 9.82738 138.449 9.21153 138.449 9.21153L164.605 43.9998L154.607 0Z" fill="#DD4242"/>
</svg>
