<svg width="28" height="28" viewBox="0 0 28 28" fill="none" xmlns="http://www.w3.org/2000/svg">
<g clip-path="url(#clip0_2_12538)">
<path fill-rule="evenodd" clip-rule="evenodd" d="M21 28H7C6.08072 28.0001 5.17042 27.8191 4.32109 27.4674C3.47177 27.1156 2.70005 26.6 2.05002 25.95C1.39999 25.2999 0.884379 24.5282 0.532633 23.6789C0.180886 22.8296 -0.000103392 21.9193 4.43109e-08 21V7C-0.000103392 6.08072 0.180886 5.17042 0.532633 4.32109C0.884379 3.47177 1.39999 2.70005 2.05002 2.05002C2.70005 1.39999 3.47177 0.884379 4.32109 0.532633C5.17042 0.180886 6.08072 -0.000103392 7 4.43109e-08H21C21.9193 -0.000103392 22.8296 0.180886 23.6789 0.532633C24.5282 0.884379 25.2999 1.39999 25.95 2.05002C26.6 2.70005 27.1156 3.47177 27.4674 4.32109C27.8191 5.17042 28.0001 6.08072 28 7V21C28.0001 21.9193 27.8191 22.8296 27.4674 23.6789C27.1156 24.5282 26.6 25.2999 25.95 25.95C25.2999 26.6 24.5282 27.1156 23.6789 27.4674C22.8296 27.8191 21.9193 28.0001 21 28" fill="#7387DC"/>
<path d="M12.1753 13.7653C11.9518 13.7462 11.7277 13.7951 11.5324 13.9055C11.3371 14.016 11.1797 14.1828 11.0808 14.3842C10.982 14.5856 10.9462 14.8121 10.9782 15.0342C11.0102 15.2562 11.1086 15.4635 11.2603 15.6287C11.4121 15.7939 11.6102 15.9095 11.8287 15.9603C12.0473 16.011 12.276 15.9946 12.4851 15.9132C12.6941 15.8318 12.8737 15.6891 13.0004 15.5039C13.127 15.3187 13.1947 15.0995 13.1947 14.8752C13.2067 14.5928 13.106 14.3173 12.9149 14.1091C12.7237 13.901 12.4577 13.7773 12.1753 13.7653" fill="white"/>
<path d="M15.8244 13.7653C15.6009 13.7462 15.3768 13.7951 15.1815 13.9055C14.9862 14.016 14.8288 14.1828 14.7299 14.3842C14.631 14.5856 14.5952 14.8121 14.6273 15.0342C14.6593 15.2562 14.7576 15.4635 14.9094 15.6287C15.0611 15.7939 15.2592 15.9095 15.4778 15.9603C15.6963 16.011 15.9251 15.9946 16.1341 15.9132C16.3432 15.8318 16.5228 15.6891 16.6494 15.5039C16.776 15.3187 16.8438 15.0995 16.8438 14.8752C16.8557 14.5928 16.7551 14.3173 16.5639 14.1091C16.3728 13.901 16.1067 13.7773 15.8244 13.7653" fill="white"/>
<path d="M22.7499 7.43475C22.7506 7.16473 22.698 6.89722 22.5953 6.64752C22.4925 6.39782 22.3415 6.17083 22.1509 5.97953C21.9604 5.78823 21.7339 5.63638 21.4846 5.53264C21.2353 5.42891 20.968 5.37534 20.698 5.375H7.30176C7.03174 5.37534 6.76443 5.42891 6.51513 5.53264C6.26583 5.63638 6.03942 5.78823 5.84885 5.97953C5.65828 6.17083 5.50729 6.39782 5.40452 6.64752C5.30174 6.89722 5.2492 7.16473 5.24989 7.43475V20.6897C5.24915 20.9597 5.30167 21.2273 5.40442 21.477C5.50718 21.7268 5.65816 21.9538 5.84873 22.1452C6.0393 22.3365 6.26572 22.4884 6.51505 22.5922C6.76437 22.6959 7.03171 22.7495 7.30176 22.7499H18.0205C18.0883 22.7501 18.1552 22.7345 18.2159 22.7043C18.2766 22.6742 18.3294 22.6303 18.3702 22.5761C18.411 22.522 18.4386 22.4591 18.4508 22.3924C18.463 22.3257 18.4595 22.2571 18.4405 22.1921C18.2918 21.6798 18.0993 20.9999 18.0993 20.9999C18.0993 20.9999 20.7024 23.4477 22.0105 24.6814C22.0727 24.7403 22.1508 24.7797 22.2352 24.7946C22.3195 24.8096 22.4064 24.7995 22.485 24.7656C22.5637 24.7317 22.6307 24.6755 22.6778 24.6039C22.7249 24.5324 22.7499 24.4486 22.7499 24.3629V7.43475ZM16.9224 18.4283C16.8783 18.4303 16.8343 18.4219 16.794 18.4038C16.7538 18.3857 16.7183 18.3584 16.6905 18.3241L16.3799 17.9422C16.3516 17.9074 16.332 17.8664 16.3226 17.8225C16.3132 17.7787 16.3143 17.7332 16.3258 17.6899C16.3373 17.6465 16.3589 17.6065 16.3888 17.5731C16.4188 17.5397 16.4562 17.5139 16.498 17.4977C17.0717 17.2966 17.5706 16.9258 17.9286 16.4346C16.7524 17.176 15.3903 17.5694 13.9999 17.5694C12.6095 17.5694 11.2474 17.176 10.0711 16.4346C10.4292 16.9258 10.9281 17.2966 11.5018 17.4977C11.5436 17.5139 11.581 17.5397 11.6109 17.5731C11.6409 17.6065 11.6625 17.6465 11.674 17.6899C11.6855 17.7332 11.6866 17.7787 11.6772 17.8225C11.6678 17.8664 11.6482 17.9074 11.6199 17.9422L11.3093 18.3241C11.2815 18.3584 11.246 18.3857 11.2057 18.4038C11.1655 18.4219 11.1215 18.4303 11.0774 18.4283C10.5061 18.4238 9.94404 18.2844 9.43692 18.0214C8.92979 17.7584 8.49201 17.3793 8.15926 16.9149C8.19171 14.8877 8.68386 12.8942 9.59864 11.0848C10.3936 10.4674 11.355 10.1019 12.3593 10.0353C12.375 10.035 12.3905 10.0381 12.4049 10.0444C12.4192 10.0508 12.432 10.0602 12.4424 10.072C12.4544 10.0852 12.4628 10.1013 12.4669 10.1186C12.471 10.136 12.4706 10.1541 12.4658 10.1713C12.461 10.1884 12.4519 10.2041 12.4394 10.2168C12.4269 10.2295 12.4114 10.2389 12.3943 10.2439C11.5407 10.4883 10.7459 10.9037 10.058 11.465C11.2662 10.8023 12.6219 10.4548 13.9999 10.4548C15.3779 10.4548 16.7336 10.8023 17.9418 11.465C17.2539 10.9037 16.459 10.4883 15.6055 10.2439C15.5884 10.2389 15.5729 10.2295 15.5604 10.2168C15.5479 10.2041 15.5388 10.1884 15.534 10.1713C15.5292 10.1541 15.5288 10.136 15.5329 10.1186C15.537 10.1013 15.5454 10.0852 15.5574 10.072C15.5677 10.0602 15.5805 10.0508 15.5949 10.0444C15.6092 10.0381 15.6248 10.035 15.6405 10.0353C16.6448 10.1019 17.6062 10.4674 18.4011 11.0848C19.3159 12.8942 19.8081 14.8877 19.8405 16.9149C19.5078 17.3793 19.07 17.7584 18.5629 18.0214C18.0557 18.2844 17.4936 18.4238 16.9224 18.4283V18.4283Z" fill="white"/>
</g>
<defs>
<clipPath id="clip0_2_12538">
<rect width="28" height="28" fill="white"/>
</clipPath>
</defs>
</svg>
