<svg width="20" height="20" viewBox="0 0 20 20" fill="none" xmlns="http://www.w3.org/2000/svg">
<path d="M12.1055 12H16.8694C18.3562 12 19.3232 10.4354 18.6583 9.10557L15.1583 2.10557C14.8195 1.42801 14.1269 1 13.3694 1H9.35168C9.18816 1 9.02525 1.02005 8.86661 1.05972L5.10547 2M12.1055 12V17C12.1055 18.1046 11.21 19 10.1055 19H10.01C9.51044 19 9.10547 18.595 9.10547 18.0955C9.10547 17.3812 8.89403 16.6828 8.49781 16.0885L5.10547 11V2M12.1055 12H10.1055M5.10547 2H3.10547C2.0009 2 1.10547 2.89543 1.10547 4V10C1.10547 11.1046 2.0009 12 3.10547 12H5.60547" stroke="#81838C" stroke-width="2" stroke-linecap="round" stroke-linejoin="round"/>
</svg>
