<svg width="20" height="20" viewBox="0 0 20 20" fill="none" xmlns="http://www.w3.org/2000/svg">
<path d="M12.1056 8H16.8695C18.3563 8 19.3232 9.56463 18.6583 10.8944L15.1583 17.8944C14.8196 18.572 14.127 19 13.3695 19H9.35177C9.18825 19 9.02534 18.9799 8.8667 18.9403L5.10556 18M12.1056 8V3C12.1056 1.89543 11.2101 1 10.1056 1H10.0101C9.51053 1 9.10556 1.40497 9.10556 1.90453C9.10556 2.61883 8.89412 3.31715 8.4979 3.91149L5.10556 9V18M12.1056 8H10.1056M5.10556 18H3.10556C2.00099 18 1.10556 17.1046 1.10556 16V10C1.10556 8.89543 2.00099 8 3.10556 8H5.60556" stroke="#81838C" stroke-width="2" stroke-linecap="round" stroke-linejoin="round"/>
</svg>
