<svg width="24" height="24" viewBox="0 0 24 24" fill="none" xmlns="http://www.w3.org/2000/svg">
<path d="M20.7273 0H3.27273C1.46525 0 0 1.46525 0 3.27273V20.7273C0 22.5347 1.46525 24 3.27273 24H20.7273C22.5347 24 24 22.5347 24 20.7273V3.27273C24 1.46525 22.5347 0 20.7273 0Z" fill="#393939"/>
<path d="M8.64559 6.54545C8.64559 6.95001 8.52563 7.34547 8.30087 7.68185C8.07611 8.01822 7.75666 8.28039 7.3829 8.43521C7.00914 8.59002 6.59787 8.63053 6.20109 8.55161C5.80431 8.47268 5.43985 8.27787 5.15379 7.99181C4.86773 7.70575 4.67292 7.34128 4.59399 6.9445C4.51507 6.54772 4.55557 6.13645 4.71039 5.76269C4.8652 5.38894 5.12738 5.06948 5.46375 4.84472C5.80012 4.61996 6.19559 4.5 6.60014 4.5C7.14263 4.5 7.6629 4.7155 8.04649 5.0991C8.43009 5.4827 8.64559 6.00297 8.64559 6.54545Z" fill="white"/>
<path d="M8.18276 9.95258V18.9894C8.18312 19.0561 8.1703 19.1221 8.14503 19.1838C8.11977 19.2455 8.08256 19.3016 8.03555 19.3489C7.98853 19.3962 7.93264 19.4337 7.87108 19.4593C7.80953 19.4849 7.74352 19.498 7.67685 19.498H5.52095C5.45428 19.4982 5.38823 19.4852 5.32661 19.4598C5.26498 19.4343 5.20899 19.397 5.16185 19.3498C5.11471 19.3027 5.07735 19.2467 5.05192 19.1851C5.02649 19.1235 5.01349 19.0574 5.01367 18.9908V9.95258C5.01367 9.81805 5.06712 9.68902 5.16225 9.59389C5.25738 9.49876 5.38641 9.44531 5.52095 9.44531H7.67685C7.81115 9.44567 7.93983 9.49928 8.03466 9.59437C8.1295 9.68946 8.18276 9.81828 8.18276 9.95258Z" fill="white"/>
<path d="M19.4507 14.6577V19.0323C19.4509 19.0936 19.439 19.1543 19.4156 19.2109C19.3922 19.2676 19.3579 19.3191 19.3145 19.3624C19.2712 19.4058 19.2197 19.4401 19.163 19.4635C19.1064 19.4869 19.0457 19.4988 18.9844 19.4986H16.6662C16.6049 19.4988 16.5442 19.4869 16.4875 19.4635C16.4308 19.4401 16.3794 19.4058 16.336 19.3624C16.2927 19.3191 16.2583 19.2676 16.235 19.2109C16.2116 19.1543 16.1996 19.0936 16.1998 19.0323V14.7927C16.1998 14.16 16.3853 12.0218 14.5457 12.0218C13.1207 12.0218 12.8303 13.485 12.773 14.1423V19.0323C12.773 19.1548 12.7248 19.2724 12.6388 19.3596C12.5528 19.4469 12.436 19.4968 12.3135 19.4986H10.0744C10.0132 19.4986 9.95262 19.4866 9.89611 19.4631C9.83961 19.4396 9.78829 19.4053 9.74509 19.3619C9.70189 19.3186 9.66767 19.2672 9.64438 19.2106C9.62109 19.1541 9.6092 19.0934 9.60938 19.0323V9.91363C9.6092 9.85245 9.62109 9.79183 9.64438 9.73526C9.66767 9.67869 9.70189 9.62726 9.74509 9.58394C9.78829 9.54062 9.83961 9.50624 9.89611 9.48279C9.95262 9.45933 10.0132 9.44726 10.0744 9.44726H12.3135C12.4372 9.44726 12.5558 9.4964 12.6432 9.58386C12.7307 9.67132 12.7798 9.78994 12.7798 9.91363V10.7018C13.3089 9.90817 14.093 9.2959 15.7662 9.2959C19.4725 9.2959 19.4507 12.7568 19.4507 14.6577Z" fill="white"/>
</svg>
