<svg width="21" height="20" viewBox="0 0 21 20" fill="none" xmlns="http://www.w3.org/2000/svg">
<g clip-path="url(#clip0_2_7257)">
<path d="M18.4382 0.833496H11.7715C11.3113 0.833496 10.9382 1.20661 10.9382 1.66683C10.9382 2.12706 11.3113 2.50017 11.7715 2.50017H16.4264L7.84901 11.0775C7.52364 11.4029 7.52364 11.9306 7.84901 12.256C8.01169 12.4187 8.22495 12.5001 8.43822 12.5001C8.65149 12.5001 8.86479 12.4187 9.02743 12.256L17.6049 3.67866V8.33347C17.6049 8.7937 17.978 9.16681 18.4382 9.16681C18.8984 9.16681 19.2716 8.7937 19.2716 8.33347V1.66683C19.2715 1.20661 18.8984 0.833496 18.4382 0.833496Z" fill="#393939"/>
<path d="M15.106 9.16695C14.6458 9.16695 14.2727 9.54006 14.2727 10.0003V17.5003H2.60609V5.83363H10.1061C10.5663 5.83363 10.9394 5.46052 10.9394 5.00029C10.9394 4.54007 10.5663 4.16699 10.1061 4.16699H1.77279C1.31256 4.16699 0.939453 4.5401 0.939453 5.00033V18.3336C0.939453 18.7938 1.31256 19.1669 1.77279 19.1669H15.1061C15.5663 19.1669 15.9394 18.7938 15.9394 18.3336V10.0003C15.9394 9.54006 15.5663 9.16695 15.106 9.16695Z" fill="#393939"/>
</g>
<defs>
<clipPath id="clip0_2_7257">
<rect width="20" height="20" fill="white" transform="translate(0.105469)"/>
</clipPath>
</defs>
</svg>
