<svg width="28" height="28" viewBox="0 0 28 28" fill="none" xmlns="http://www.w3.org/2000/svg">
<g clip-path="url(#clip0_2_12524)">
<path fill-rule="evenodd" clip-rule="evenodd" d="M21 28H7C5.14351 27.9999 3.36308 27.2624 2.05034 25.9497C0.737605 24.6369 8.12161e-05 22.8565 0 21L0 7C8.12161e-05 5.14351 0.737605 3.36308 2.05034 2.05034C3.36308 0.737605 5.14351 8.12161e-05 7 0L21 0C22.8565 0 24.637 0.737498 25.9497 2.05025C27.2625 3.36301 28 5.14348 28 7V21C28 22.8565 27.2625 24.637 25.9497 25.9497C24.637 27.2625 22.8565 28 21 28Z" fill="#24B5EA"/>
<path fill-rule="evenodd" clip-rule="evenodd" d="M19.7225 7.45187C19.9376 7.36308 20.1724 7.33305 20.4029 7.36487C20.6334 7.39669 20.8512 7.48921 21.0342 7.63296C21.2172 7.77671 21.3586 7.96651 21.4441 8.18293C21.5296 8.39934 21.556 8.63458 21.5206 8.86456C21.0108 12.1804 20.076 18.2564 19.5798 21.4816C19.5454 21.7048 19.4541 21.9154 19.3146 22.0929C19.1751 22.2705 18.9921 22.409 18.7834 22.4952C18.5747 22.5814 18.3473 22.6123 18.1232 22.5848C17.899 22.5574 17.6858 22.4726 17.504 22.3387C15.7486 21.0454 13.1169 19.1064 11.7807 18.1216C11.6776 18.0456 11.5924 17.9479 11.5312 17.8354C11.47 17.7229 11.4342 17.5983 11.4264 17.4705C11.4187 17.3426 11.439 17.2146 11.4861 17.0955C11.5332 16.9764 11.6059 16.8691 11.699 16.7811C12.9233 15.6248 15.3619 13.3218 17.0397 11.7372C17.0792 11.6996 17.1032 11.6487 17.1071 11.5943C17.111 11.5399 17.0945 11.486 17.0607 11.4432C17.027 11.4004 16.9785 11.3717 16.9247 11.3628C16.8709 11.3539 16.8157 11.3654 16.77 11.3951C14.6187 12.7981 11.3241 14.9467 9.70938 15.9997C9.40677 16.1971 9.06667 16.3299 8.71038 16.3897C8.35409 16.4496 7.98927 16.4352 7.63878 16.3476C6.74965 16.1253 5.46717 15.8046 4.32586 15.5194C4.14717 15.4747 3.98713 15.3748 3.86853 15.2339C3.74993 15.093 3.67881 14.9183 3.66532 14.7346C3.65182 14.5509 3.69663 14.3676 3.79336 14.2109C3.8901 14.0542 4.03382 13.932 4.20406 13.8617C8.17708 12.2206 15.9522 9.00937 19.7225 7.45187Z" fill="white"/>
</g>
<defs>
<clipPath id="clip0_2_12524">
<rect width="28" height="28" fill="white"/>
</clipPath>
</defs>
</svg>
