<svg width="28" height="28" viewBox="0 0 28 28" fill="none" xmlns="http://www.w3.org/2000/svg">
<path d="M25.7895 0H2.21053C0.989686 0 0 0.989686 0 2.21053V25.7895C0 27.0103 0.989686 28 2.21053 28H25.7895C27.0103 28 28 27.0103 28 25.7895V2.21053C28 0.989686 27.0103 0 25.7895 0Z" fill="#03A9F4"/>
<path d="M23.069 8.37618C22.3868 8.67409 21.6653 8.87201 20.9266 8.96381C21.7053 8.50206 22.2874 7.77052 22.5624 6.90802C21.8336 7.34061 21.0361 7.64527 20.2045 7.80881C19.6949 7.26382 19.0331 6.8848 18.3052 6.72103C17.5773 6.55726 16.8169 6.61632 16.123 6.89055C15.4291 7.16477 14.8338 7.64145 14.4144 8.2586C13.9951 8.87575 13.7712 9.60479 13.7719 10.3509C13.7693 10.6357 13.7983 10.9199 13.8584 11.1983C12.3792 11.1256 10.9319 10.7417 9.6111 10.0716C8.29031 9.40157 7.12574 8.46039 6.19345 7.3096C5.71424 8.12825 5.56578 9.099 5.77841 10.0235C5.99103 10.9479 6.54869 11.7563 7.3374 12.2833C6.7487 12.2674 6.17248 12.1101 5.6574 11.8246V11.8651C5.65905 12.7232 5.95607 13.5546 6.49852 14.2195C7.04097 14.8844 7.79579 15.3423 8.63608 15.5162C8.31808 15.5997 7.99039 15.6406 7.66161 15.6378C7.42487 15.6421 7.18835 15.6211 6.95608 15.5751C7.19682 16.3131 7.6603 16.9584 8.28277 17.4222C8.90524 17.886 9.65612 18.1455 10.4321 18.1651C9.1171 19.193 7.49595 19.7513 5.82687 19.7512C5.52948 19.7537 5.23224 19.7365 4.93713 19.6996C6.639 20.7969 8.62274 21.3766 10.6477 21.3685C17.4911 21.3685 21.2324 15.7004 21.2324 10.7875C21.2324 10.6235 21.2324 10.4651 21.2195 10.3067C21.9481 9.78086 22.5748 9.12667 23.069 8.37618Z" fill="white"/>
</svg>
