<svg width="24" height="24" viewBox="0 0 24 24" fill="none" xmlns="http://www.w3.org/2000/svg">
<path d="M22.1053 0H1.89474C0.848303 0 0 0.848303 0 1.89474V22.1053C0 23.1517 0.848303 24 1.89474 24H22.1053C23.1517 24 24 23.1517 24 22.1053V1.89474C24 0.848303 23.1517 0 22.1053 0Z" fill="#393939"/>
<path d="M19.7734 7.18C19.1887 7.43536 18.5702 7.605 17.9371 7.68368C18.6045 7.28789 19.1034 6.66087 19.3392 5.92158C18.7145 6.29237 18.0309 6.55351 17.3181 6.69368C16.8813 6.22655 16.3141 5.90167 15.6901 5.7613C15.0662 5.62092 14.4145 5.67155 13.8197 5.9066C13.2249 6.14165 12.7146 6.55023 12.3552 7.07922C11.9958 7.6082 11.8039 8.2331 11.8044 8.87263C11.8022 9.11674 11.8271 9.36034 11.8787 9.59895C10.6107 9.53667 9.37018 9.20761 8.23807 8.63326C7.10597 8.0589 6.10776 7.25218 5.30865 6.26579C4.89791 6.96749 4.77065 7.79956 4.9529 8.59195C5.13515 9.38434 5.61314 10.0772 6.28918 10.5289C5.78459 10.5153 5.29068 10.3805 4.84918 10.1358V10.1705C4.8506 10.906 5.10519 11.6186 5.57014 12.1886C6.0351 12.7585 6.68208 13.1509 7.40234 13.3C7.12977 13.3716 6.84888 13.4067 6.56707 13.4042C6.36416 13.408 6.16142 13.39 5.96234 13.3505C6.16869 13.9831 6.56595 14.5362 7.0995 14.9337C7.63305 15.3313 8.27666 15.5537 8.94181 15.5705C7.81464 16.4516 6.42509 16.9301 4.99444 16.93C4.73953 16.9322 4.48476 16.9174 4.23181 16.8858C5.69056 17.8263 7.39091 18.3232 9.12655 18.3163C14.9923 18.3163 18.1992 13.4579 18.1992 9.24684C18.1992 9.10632 18.1992 8.97053 18.1881 8.83474C18.8127 8.38401 19.3498 7.82328 19.7734 7.18Z" fill="white"/>
</svg>
